<?xml version="1.0" encoding="UTF-8"?>
<!DOCTYPE svg PUBLIC "-//W3C//DTD SVG 1.1//EN" "http://www.w3.org/Graphics/SVG/1.1/DTD/svg11.dtd">
<svg version="1.2" width="245.8mm" height="147.37mm" viewBox="0 0 24580 14737" preserveAspectRatio="xMidYMid" fill-rule="evenodd" stroke-width="28.222" stroke-linejoin="round" xmlns="http://www.w3.org/2000/svg" xmlns:ooo="http://xml.openoffice.org/svg/export" xmlns:xlink="http://www.w3.org/1999/xlink" xmlns:presentation="http://sun.com/xmlns/staroffice/presentation" xmlns:smil="http://www.w3.org/2001/SMIL20/" xmlns:anim="urn:oasis:names:tc:opendocument:xmlns:animation:1.0" xml:space="preserve">
 <defs class="ClipPathGroup">
  <clipPath id="presentation_clip_path" clipPathUnits="userSpaceOnUse">
   <rect x="0" y="0" width="24580" height="14737"/>
  </clipPath>
  <clipPath id="presentation_clip_path_shrink" clipPathUnits="userSpaceOnUse">
   <rect x="24" y="14" width="24531" height="14708"/>
  </clipPath>
 </defs>
 <defs class="TextShapeIndex">
  <g ooo:slide="id1" ooo:id-list="id3 id4 id5 id6 id7 id8 id9"/>
 </defs>
 <defs class="EmbeddedBulletChars">
  <g id="bullet-char-template-57356" transform="scale(0.00048828125,-0.00048828125)">
   <path d="M 580,1141 L 1163,571 580,0 -4,571 580,1141 Z"/>
  </g>
  <g id="bullet-char-template-57354" transform="scale(0.00048828125,-0.00048828125)">
   <path d="M 8,1128 L 1137,1128 1137,0 8,0 8,1128 Z"/>
  </g>
  <g id="bullet-char-template-10146" transform="scale(0.00048828125,-0.00048828125)">
   <path d="M 174,0 L 602,739 174,1481 1456,739 174,0 Z M 1358,739 L 309,1346 659,739 1358,739 Z"/>
  </g>
  <g id="bullet-char-template-10132" transform="scale(0.00048828125,-0.00048828125)">
   <path d="M 2015,739 L 1276,0 717,0 1260,543 174,543 174,936 1260,936 717,1481 1274,1481 2015,739 Z"/>
  </g>
  <g id="bullet-char-template-10007" transform="scale(0.00048828125,-0.00048828125)">
   <path d="M 0,-2 C -7,14 -16,27 -25,37 L 356,567 C 262,823 215,952 215,954 215,979 228,992 255,992 264,992 276,990 289,987 310,991 331,999 354,1012 L 381,999 492,748 772,1049 836,1024 860,1049 C 881,1039 901,1025 922,1006 886,937 835,863 770,784 769,783 710,716 594,584 L 774,223 C 774,196 753,168 711,139 L 727,119 C 717,90 699,76 672,76 641,76 570,178 457,381 L 164,-76 C 142,-110 111,-127 72,-127 30,-127 9,-110 8,-76 1,-67 -2,-52 -2,-32 -2,-23 -1,-13 0,-2 Z"/>
  </g>
  <g id="bullet-char-template-10004" transform="scale(0.00048828125,-0.00048828125)">
   <path d="M 285,-33 C 182,-33 111,30 74,156 52,228 41,333 41,471 41,549 55,616 82,672 116,743 169,778 240,778 293,778 328,747 346,684 L 369,508 C 377,444 397,411 428,410 L 1163,1116 C 1174,1127 1196,1133 1229,1133 1271,1133 1292,1118 1292,1087 L 1292,965 C 1292,929 1282,901 1262,881 L 442,47 C 390,-6 338,-33 285,-33 Z"/>
  </g>
  <g id="bullet-char-template-9679" transform="scale(0.00048828125,-0.00048828125)">
   <path d="M 813,0 C 632,0 489,54 383,161 276,268 223,411 223,592 223,773 276,916 383,1023 489,1130 632,1184 813,1184 992,1184 1136,1130 1245,1023 1353,916 1407,772 1407,592 1407,412 1353,268 1245,161 1136,54 992,0 813,0 Z"/>
  </g>
  <g id="bullet-char-template-8226" transform="scale(0.00048828125,-0.00048828125)">
   <path d="M 346,457 C 273,457 209,483 155,535 101,586 74,649 74,723 74,796 101,859 155,911 209,963 273,989 346,989 419,989 480,963 531,910 582,859 608,796 608,723 608,648 583,586 532,535 482,483 420,457 346,457 Z"/>
  </g>
  <g id="bullet-char-template-8211" transform="scale(0.00048828125,-0.00048828125)">
   <path d="M -4,459 L 1135,459 1135,606 -4,606 -4,459 Z"/>
  </g>
  <g id="bullet-char-template-61548" transform="scale(0.00048828125,-0.00048828125)">
   <path d="M 173,740 C 173,903 231,1043 346,1159 462,1274 601,1332 765,1332 928,1332 1067,1274 1183,1159 1299,1043 1357,903 1357,740 1357,577 1299,437 1183,322 1067,206 928,148 765,148 601,148 462,206 346,322 231,437 173,577 173,740 Z"/>
  </g>
 </defs>
 <g>
  <g id="id2" class="Master_Slide">
   <g id="bg-id2" class="Background"/>
   <g id="bo-id2" class="BackgroundObjects"/>
  </g>
 </g>
 <g class="SlideGroup">
  <g>
   <g id="container-id1">
    <g id="id1" class="Slide" clip-path="url(#presentation_clip_path)">
     <g class="Page">
      <g class="com.sun.star.drawing.ClosedBezierShape">
       <g id="id3">
        <rect class="BoundingBox" stroke="none" fill="none" x="11621" y="5606" width="8840" height="5167"/>
        <path fill="rgb(42,96,153)" stroke="none" d="M 20447,9147 C 20479,8671 20508,8703 19681,8277 19284,8073 18707,7775 18399,7617 17770,7292 16686,6847 15766,6537 15172,6337 14739,6235 14116,6148 13703,6091 13380,5999 12791,5772 12242,5560 12225,5559 12075,5725 11911,5906 11672,6515 11626,6872 11616,6946 11625,7054 11645,7112 11686,7232 11778,7267 12389,7400 12886,7507 13153,7585 13533,7735 13712,7805 14085,7920 14362,7991 14639,8063 14985,8174 15131,8238 15471,8390 15671,8454 15884,8485 16096,8515 16294,8599 16584,8785 16906,8991 17145,9094 17540,9197 17730,9247 17960,9326 18051,9373 18143,9420 18397,9549 18617,9662 19057,9885 19303,10102 19558,10489 19717,10728 19777,10789 19835,10767 19857,10758 19951,10586 20042,10385 20312,9793 20427,9443 20447,9147 Z"/>
       </g>
      </g>
      <g class="com.sun.star.drawing.ClosedBezierShape">
       <g id="id4">
        <rect class="BoundingBox" stroke="none" fill="none" x="880" y="2078" width="3551" height="5784"/>
        <path fill="rgb(255,191,0)" stroke="none" d="M 1837,7075 C 1590,6254 1520,5933 1492,5491 1473,5189 1478,5157 1557,5041 1625,4940 1664,4916 1761,4916 L 1880,4916 2006,5362 C 2090,5657 2227,6007 2412,6397 2693,6988 2820,7228 2820,7169 2820,7152 2741,6879 2645,6562 2368,5650 2319,5405 2314,4892 2309,4460 2312,4437 2394,4348 2501,4232 2633,4226 2678,4336 2697,4380 2762,4593 2824,4809 2901,5078 3040,5413 3268,5875 3451,6245 3607,6542 3614,6534 3622,6526 3527,6207 3403,5824 3193,5175 3067,4588 3067,4260 3067,4236 3068,4218 3070,4203 L 2887,4147 2882,4158 C 2865,4151 2848,4142 2832,4131 L 2831,4130 C 2811,4116 2791,4100 2773,4081 2745,4051 2719,4015 2698,3974 2678,3935 2661,3890 2648,3842 2632,3778 2623,3708 2623,3636 2623,3603 2625,3569 2629,3535 2640,3428 2670,3324 2714,3234 2736,3188 2762,3146 2791,3109 2820,3071 2852,3038 2886,3012 2919,2986 2954,2966 2989,2953 3026,2939 3063,2932 3100,2932 3104,2932 3108,2932 3113,2932 3152,2934 3190,2944 3226,2961 3261,2978 3294,3002 3324,3034 3346,3056 3365,3083 3383,3112 3398,3136 3411,3163 3422,3191 L 3811,3304 C 3815,3267 3837,3226 3878,3185 4008,3053 4116,3115 4133,3330 4135,3358 4136,3381 4135,3398 L 4430,3484 C 4421,3373 4412,3185 4405,2977 4394,2650 4372,2349 4356,2310 4302,2180 4185,2078 4089,2078 4006,2078 3497,2415 2748,2965 1253,4065 1225,4088 1109,4271 987,4464 880,4774 880,4935 880,5042 1153,6003 1260,6273 1403,6631 2009,7861 2042,7861 2061,7861 2070,7841 2062,7817 2054,7792 1952,7459 1837,7075 Z"/>
       </g>
      </g>
      <g class="com.sun.star.drawing.ClosedBezierShape">
       <g id="id5">
        <rect class="BoundingBox" stroke="none" fill="none" x="2729" y="3038" width="8689" height="3542"/>
        <path fill="rgb(255,191,0)" stroke="none" d="M 4805,4618 L 4798,4641 C 4964,4687 5308,4797 6048,5033 6669,5231 7312,5426 7477,5467 7642,5508 8538,5780 9470,6070 10401,6361 11165,6589 11168,6578 11171,6567 11201,6438 11234,6291 11268,6143 11325,5962 11362,5889 11399,5815 11422,5754 11415,5754 11400,5754 10357,5444 9064,5054 8705,4947 8054,4739 7618,4594 7181,4448 6292,4167 5642,3968 5046,3785 4543,3627 4456,3595 L 4454,3601 3324,3273 3333,3242 3329,3243 C 3318,3216 3306,3190 3292,3167 3279,3144 3264,3124 3247,3107 3227,3085 3204,3068 3180,3057 3157,3046 3133,3039 3108,3038 3105,3038 3103,3038 3100,3038 3075,3038 3051,3043 3027,3052 3001,3062 2976,3076 2951,3095 2924,3117 2898,3143 2875,3173 2850,3205 2828,3241 2809,3280 2770,3360 2744,3452 2734,3546 2731,3576 2729,3606 2729,3636 2729,3699 2737,3759 2751,3816 2761,3856 2775,3893 2792,3925 2809,3957 2828,3985 2850,4008 2859,4017 2869,4026 2880,4034 L 4805,4618 Z"/>
       </g>
      </g>
      <g class="com.sun.star.drawing.ClosedBezierShape">
       <g id="id6">
        <rect class="BoundingBox" stroke="none" fill="none" x="3533" y="4343" width="614" height="1510"/>
        <path fill="rgb(255,191,0)" stroke="none" d="M 3572,4498 C 3603,4635 3710,4930 3810,5153 3911,5376 4024,5628 4062,5713 4181,5978 4172,5850 4042,5428 3865,4846 3793,4547 3810,4427 L 3533,4343 C 3545,4381 3557,4430 3572,4498 Z"/>
       </g>
      </g>
      <g class="com.sun.star.drawing.ClosedBezierShape">
       <g id="id7">
        <rect class="BoundingBox" stroke="none" fill="none" x="4470" y="4627" width="310" height="618"/>
        <path fill="rgb(255,191,0)" stroke="none" d="M 4607,4911 C 4712,5130 4788,5277 4777,5237 4677,4897 4634,4743 4626,4674 L 4470,4627 4607,4911 Z"/>
       </g>
      </g>
      <g class="com.sun.star.drawing.ClosedBezierShape">
       <g id="id8">
        <rect class="BoundingBox" stroke="none" fill="none" x="11277" y="5541" width="805" height="1547"/>
        <path fill="rgb(255,0,0)" stroke="none" d="M 11825,5951 C 11882,5833 11970,5693 12020,5639 12086,5568 12096,5541 12058,5541 12028,5541 11967,5580 11921,5630 11876,5679 11803,5719 11759,5719 11715,5719 11669,5734 11657,5754 11645,5774 11607,5791 11573,5791 11499,5791 11382,6030 11305,6338 11250,6561 11276,6677 11408,6788 11438,6814 11463,6872 11463,6916 11463,6962 11474,7028 11489,7064 11507,7112 11520,7086 11537,6969 11550,6880 11553,6796 11545,6782 11522,6742 11707,6194 11825,5951 Z"/>
       </g>
      </g>
      <g class="com.sun.star.drawing.ClosedBezierShape">
       <g id="id9">
        <rect class="BoundingBox" stroke="none" fill="none" x="810" y="2008" width="19722" height="8852"/>
        <path fill="rgb(0,0,0)" stroke="none" d="M 19489,10560 C 19234,10174 18987,9957 18548,9734 18328,9621 18073,9492 17982,9445 17891,9399 17661,9320 17470,9270 17075,9166 16836,9063 16515,8857 16224,8672 16027,8587 15814,8558 15602,8527 15402,8462 15061,8311 14916,8246 14570,8135 14293,8064 14016,7992 13643,7877 13464,7807 13100,7664 12840,7589 12222,7449 11706,7331 11429,7241 11389,7178 11373,7152 11359,7092 11359,7046 11358,7000 11320,6916 11273,6861 11227,6804 11183,6743 11176,6725 11163,6689 7898,5662 7407,5540 7242,5499 6599,5304 5978,5107 4621,4675 4726,4705 4726,4746 4726,4766 4758,4874 4797,4988 4891,5265 4890,5399 4795,5399 4738,5399 4684,5315 4535,4992 L 4348,4591 4000,4485 C 3935,4471 3890,4466 3886,4474 3872,4509 3965,4872 4111,5348 4251,5806 4266,5970 4166,5970 4130,5970 4085,5950 4066,5925 3973,5800 3572,4845 3509,4597 3458,4397 3441,4336 3385,4299 L 3154,4229 C 3153,4229 3153,4230 3152,4230 3141,4241 3158,4432 3190,4652 3230,4927 3321,5278 3476,5757 3601,6143 3703,6494 3703,6536 3703,6593 3681,6613 3615,6613 3536,6613 3493,6544 3196,5944 2956,5458 2830,5152 2737,4829 2667,4585 2595,4371 2580,4356 2564,4340 2513,4369 2466,4420 2385,4508 2380,4535 2386,4895 2393,5332 2454,5629 2717,6492 2919,7157 2931,7255 2807,7255 2734,7255 2689,7184 2450,6693 2081,5933 2085,5942 1939,5435 1854,5139 1794,4988 1762,4988 1735,4988 1675,5045 1629,5113 1552,5227 1546,5262 1567,5505 1602,5912 1676,6231 1925,7056 2051,7470 2149,7840 2143,7880 2136,7929 2106,7952 2045,7952 1966,7952 1925,7887 1650,7327 1481,6983 1292,6581 1230,6435 1067,6047 810,5129 810,4936 810,4709 900,4422 1040,4201 1155,4018 1183,3996 2679,2895 2765,2831 3081,2605 3381,2394 3885,2036 3938,2008 4090,2008 4217,2008 4272,2026 4327,2088 4444,2220 4456,2285 4477,2906 4488,3234 4505,3509 4514,3519 4524,3529 5064,3699 5714,3897 6364,4096 7253,4377 7689,4523 8396,4759 9455,5086 10999,5543 11372,5653 11515,5683 11544,5653 11566,5631 11617,5613 11658,5613 11699,5613 11779,5565 11834,5505 11890,5447 11970,5399 12012,5399 12053,5399 12375,5511 12726,5648 13433,5923 13753,6018 14187,6078 14810,6164 15243,6267 15837,6467 16757,6777 17842,7222 18471,7547 18778,7706 19355,8003 19753,8208 20589,8638 20548,8588 20519,9148 20505,9419 20477,9554 20377,9825 20227,10233 19969,10796 19915,10833 19855,10873 19737,10864 19679,10815 19651,10790 19565,10676 19489,10560 Z M 20448,9148 C 20480,8672 20509,8704 19682,8278 19285,8074 18708,7776 18400,7618 17771,7293 16687,6848 15767,6538 15173,6338 14740,6236 14117,6149 13704,6092 13381,6000 12792,5773 12243,5561 12226,5560 12076,5726 11912,5907 11673,6516 11627,6873 11617,6947 11626,7055 11646,7113 11687,7233 11779,7268 12390,7401 12887,7508 13154,7586 13534,7736 13713,7806 14086,7921 14363,7992 14640,8064 14986,8175 15132,8239 15472,8391 15672,8455 15885,8486 16097,8516 16295,8600 16585,8786 16907,8992 17146,9095 17541,9198 17731,9248 17961,9327 18052,9374 18144,9421 18398,9550 18618,9663 19058,9886 19304,10103 19559,10490 19718,10729 19778,10790 19836,10768 19858,10759 19952,10587 20043,10386 20313,9794 20428,9444 20448,9148 Z M 1838,7076 C 1591,6255 1521,5934 1493,5492 1474,5190 1479,5158 1558,5042 1626,4941 1665,4917 1762,4917 L 1881,4917 2007,5363 C 2091,5658 2228,6008 2413,6398 2694,6989 2821,7229 2821,7170 2821,7153 2742,6880 2646,6563 2369,5651 2320,5406 2315,4893 2310,4461 2313,4438 2395,4349 2502,4233 2634,4227 2679,4337 2698,4381 2763,4594 2825,4810 2902,5079 3041,5414 3269,5876 3452,6246 3608,6543 3615,6535 3623,6527 3528,6208 3404,5825 3194,5176 3068,4589 3068,4261 3068,4237 3069,4219 3071,4204 L 2888,4148 2883,4159 C 2866,4152 2849,4143 2833,4132 L 2832,4131 C 2812,4117 2792,4101 2774,4082 2746,4052 2720,4016 2699,3975 2679,3936 2662,3891 2649,3843 2633,3779 2624,3709 2624,3637 2624,3604 2626,3570 2630,3536 2641,3429 2671,3325 2715,3235 2737,3189 2763,3147 2792,3110 2821,3072 2853,3039 2887,3013 2920,2987 2955,2967 2990,2954 3027,2940 3064,2933 3101,2933 3105,2933 3109,2933 3114,2933 3153,2935 3191,2945 3227,2962 3262,2979 3295,3003 3325,3035 3347,3057 3366,3084 3384,3113 3399,3137 3412,3164 3423,3192 L 3812,3305 C 3816,3268 3838,3227 3879,3186 4009,3054 4117,3116 4134,3331 4136,3359 4137,3382 4136,3399 L 4431,3485 C 4422,3374 4413,3186 4406,2978 4395,2651 4373,2350 4357,2311 4303,2181 4186,2079 4090,2079 4007,2079 3498,2416 2749,2966 1254,4066 1226,4089 1110,4272 988,4465 881,4775 881,4936 881,5043 1154,6004 1261,6274 1404,6632 2010,7862 2043,7862 2062,7862 2071,7842 2063,7818 2055,7793 1953,7460 1838,7076 Z M 4806,4619 L 4799,4642 C 4965,4688 5309,4798 6049,5034 6670,5232 7313,5427 7478,5468 7643,5509 8539,5781 9471,6071 10402,6362 11166,6590 11169,6579 11172,6568 11202,6439 11235,6292 11269,6144 11326,5963 11363,5890 11400,5816 11423,5755 11416,5755 11401,5755 10358,5445 9065,5055 8706,4948 8055,4740 7619,4595 7182,4449 6293,4168 5643,3969 5047,3786 4544,3628 4457,3596 L 4455,3602 3325,3274 3334,3243 3330,3244 C 3319,3217 3307,3191 3293,3168 3280,3145 3265,3125 3248,3108 3228,3086 3205,3069 3181,3058 3158,3047 3134,3040 3109,3039 3106,3039 3104,3039 3101,3039 3076,3039 3052,3044 3028,3053 3002,3063 2977,3077 2952,3096 2925,3118 2899,3144 2876,3174 2851,3206 2829,3242 2810,3281 2771,3361 2745,3453 2735,3547 2732,3577 2730,3607 2730,3637 2730,3700 2738,3760 2752,3817 2762,3857 2776,3894 2793,3926 2810,3958 2829,3986 2851,4009 2860,4018 2870,4027 2881,4035 L 4806,4619 Z M 3573,4499 C 3604,4636 3711,4931 3811,5154 3912,5377 4025,5629 4063,5714 4182,5979 4173,5851 4043,5429 3866,4847 3794,4548 3811,4428 L 3534,4344 C 3546,4382 3558,4431 3573,4499 Z M 4608,4912 C 4713,5131 4789,5278 4778,5238 4678,4898 4635,4744 4627,4675 L 4471,4628 4608,4912 Z M 4056,3312 C 4056,3243 3987,3205 3943,3250 3923,3270 3917,3304 3930,3326 3934,3333 3940,3339 3946,3344 L 4010,3363 C 4035,3359 4056,3341 4056,3312 Z M 11826,5952 C 11883,5834 11971,5694 12021,5640 12087,5569 12097,5542 12059,5542 12029,5542 11968,5581 11922,5631 11877,5680 11804,5720 11760,5720 11716,5720 11670,5735 11658,5755 11646,5775 11608,5792 11574,5792 11500,5792 11383,6031 11306,6339 11251,6562 11277,6678 11409,6789 11439,6815 11464,6873 11464,6917 11464,6963 11475,7029 11490,7065 11508,7113 11521,7087 11538,6970 11551,6881 11554,6797 11546,6783 11523,6743 11708,6195 11826,5952 Z"/>
       </g>
      </g>
     </g>
    </g>
   </g>
  </g>
 </g>
</svg>