<?xml version="1.0" encoding="UTF-8"?>
<!DOCTYPE svg PUBLIC "-//W3C//DTD SVG 1.1//EN" "http://www.w3.org/Graphics/SVG/1.1/DTD/svg11.dtd">
<svg version="1.2" width="142.38mm" height="106.91mm" viewBox="0 0 14238 10691" preserveAspectRatio="xMidYMid" fill-rule="evenodd" stroke-width="28.222" stroke-linejoin="round" xmlns="http://www.w3.org/2000/svg" xmlns:ooo="http://xml.openoffice.org/svg/export" xmlns:xlink="http://www.w3.org/1999/xlink" xmlns:presentation="http://sun.com/xmlns/staroffice/presentation" xmlns:smil="http://www.w3.org/2001/SMIL20/" xmlns:anim="urn:oasis:names:tc:opendocument:xmlns:animation:1.0" xml:space="preserve">
 <defs class="ClipPathGroup">
  <clipPath id="presentation_clip_path" clipPathUnits="userSpaceOnUse">
   <rect x="0" y="0" width="14238" height="10691"/>
  </clipPath>
  <clipPath id="presentation_clip_path_shrink" clipPathUnits="userSpaceOnUse">
   <rect x="14" y="10" width="14210" height="10670"/>
  </clipPath>
 </defs>
 <defs class="TextShapeIndex">
  <g ooo:slide="id1" ooo:id-list="id3 id4 id5 id6 id7 id8 id9 id10 id11 id12 id13 id14 id15 id16 id17 id18 id19 id20 id21 id22 id23 id24 id25 id26 id27 id28 id29 id30 id31 id32 id33 id34 id35 id36 id37 id38 id39 id40"/>
 </defs>
 <defs class="EmbeddedBulletChars">
  <g id="bullet-char-template-57356" transform="scale(0.00048828125,-0.00048828125)">
   <path d="M 580,1141 L 1163,571 580,0 -4,571 580,1141 Z"/>
  </g>
  <g id="bullet-char-template-57354" transform="scale(0.00048828125,-0.00048828125)">
   <path d="M 8,1128 L 1137,1128 1137,0 8,0 8,1128 Z"/>
  </g>
  <g id="bullet-char-template-10146" transform="scale(0.00048828125,-0.00048828125)">
   <path d="M 174,0 L 602,739 174,1481 1456,739 174,0 Z M 1358,739 L 309,1346 659,739 1358,739 Z"/>
  </g>
  <g id="bullet-char-template-10132" transform="scale(0.00048828125,-0.00048828125)">
   <path d="M 2015,739 L 1276,0 717,0 1260,543 174,543 174,936 1260,936 717,1481 1274,1481 2015,739 Z"/>
  </g>
  <g id="bullet-char-template-10007" transform="scale(0.00048828125,-0.00048828125)">
   <path d="M 0,-2 C -7,14 -16,27 -25,37 L 356,567 C 262,823 215,952 215,954 215,979 228,992 255,992 264,992 276,990 289,987 310,991 331,999 354,1012 L 381,999 492,748 772,1049 836,1024 860,1049 C 881,1039 901,1025 922,1006 886,937 835,863 770,784 769,783 710,716 594,584 L 774,223 C 774,196 753,168 711,139 L 727,119 C 717,90 699,76 672,76 641,76 570,178 457,381 L 164,-76 C 142,-110 111,-127 72,-127 30,-127 9,-110 8,-76 1,-67 -2,-52 -2,-32 -2,-23 -1,-13 0,-2 Z"/>
  </g>
  <g id="bullet-char-template-10004" transform="scale(0.00048828125,-0.00048828125)">
   <path d="M 285,-33 C 182,-33 111,30 74,156 52,228 41,333 41,471 41,549 55,616 82,672 116,743 169,778 240,778 293,778 328,747 346,684 L 369,508 C 377,444 397,411 428,410 L 1163,1116 C 1174,1127 1196,1133 1229,1133 1271,1133 1292,1118 1292,1087 L 1292,965 C 1292,929 1282,901 1262,881 L 442,47 C 390,-6 338,-33 285,-33 Z"/>
  </g>
  <g id="bullet-char-template-9679" transform="scale(0.00048828125,-0.00048828125)">
   <path d="M 813,0 C 632,0 489,54 383,161 276,268 223,411 223,592 223,773 276,916 383,1023 489,1130 632,1184 813,1184 992,1184 1136,1130 1245,1023 1353,916 1407,772 1407,592 1407,412 1353,268 1245,161 1136,54 992,0 813,0 Z"/>
  </g>
  <g id="bullet-char-template-8226" transform="scale(0.00048828125,-0.00048828125)">
   <path d="M 346,457 C 273,457 209,483 155,535 101,586 74,649 74,723 74,796 101,859 155,911 209,963 273,989 346,989 419,989 480,963 531,910 582,859 608,796 608,723 608,648 583,586 532,535 482,483 420,457 346,457 Z"/>
  </g>
  <g id="bullet-char-template-8211" transform="scale(0.00048828125,-0.00048828125)">
   <path d="M -4,459 L 1135,459 1135,606 -4,606 -4,459 Z"/>
  </g>
  <g id="bullet-char-template-61548" transform="scale(0.00048828125,-0.00048828125)">
   <path d="M 173,740 C 173,903 231,1043 346,1159 462,1274 601,1332 765,1332 928,1332 1067,1274 1183,1159 1299,1043 1357,903 1357,740 1357,577 1299,437 1183,322 1067,206 928,148 765,148 601,148 462,206 346,322 231,437 173,577 173,740 Z"/>
  </g>
 </defs>
 <g>
  <g id="id2" class="Master_Slide">
   <g id="bg-id2" class="Background"/>
   <g id="bo-id2" class="BackgroundObjects"/>
  </g>
 </g>
 <g class="SlideGroup">
  <g>
   <g id="container-id1">
    <g id="id1" class="Slide" clip-path="url(#presentation_clip_path)">
     <g class="Page">
      <g class="com.sun.star.drawing.ClosedBezierShape">
       <g id="id3">
        <rect class="BoundingBox" stroke="none" fill="none" x="0" y="7" width="14207" height="10678"/>
        <path fill="rgb(0,0,0)" stroke="none" d="M 2898,10630 C 2702,10550 2462,10334 2421,10202 2403,10147 2300,10090 2022,9983 1927,9947 1770,9858 1675,9786 1579,9714 1477,9641 1448,9623 1340,9556 1256,9325 1282,9163 1321,8928 1678,8838 1980,8988 2255,9124 2672,9175 2720,9078 2779,8956 3023,8863 3424,8809 3900,8746 4116,8635 4464,8275 4683,8049 4739,7970 4859,7723 4929,7578 4984,7501 5052,7451 5234,7318 5338,7204 5422,7044 5468,6955 5557,6805 5618,6709 5810,6409 5815,6394 5767,6266 5715,6130 5729,6097 5929,5891 6179,5632 6275,5486 6275,5363 6275,5303 6287,5233 6302,5205 6338,5138 6301,5098 6157,5049 6082,5023 6003,4968 5929,4889 5842,4796 5794,4765 5717,4754 5601,4736 5313,4624 5258,4575 5205,4528 4738,4298 4651,4276 4572,4257 4332,4147 4194,4068 4115,4023 4075,4021 3607,4035 3258,4046 3059,4041 2953,4020 2824,3995 2775,3997 2630,4032 2484,4068 2429,4069 2263,4045 1949,3999 1896,3978 1796,3856 1688,3724 1681,3723 1577,3826 1245,4152 758,4142 1016,3814 1114,3689 910,3648 732,3758 607,3835 487,3839 437,3767 417,3739 389,3722 375,3731 316,3767 87,3764 43,3726 21,3707 7,3681 0,3652 L 0,3546 C 27,3406 148,3249 279,3249 318,3249 392,3228 444,3201 530,3157 558,3155 788,3180 1107,3215 1233,3192 1289,3088 1362,2955 1857,2814 2370,2779 2613,2763 2691,2748 2791,2697 2998,2593 3145,2554 3382,2541 3616,2529 3744,2492 3955,2377 4076,2311 4077,2310 4010,2293 3873,2259 3790,2039 3876,1938 3956,1845 4069,1594 4095,1453 4139,1217 4245,886 4296,828 4322,800 4349,734 4358,683 4376,571 4596,320 4741,246 4794,219 4871,159 4914,112 5051,-39 5131,-32 5479,160 5843,362 6054,589 6161,893 6364,1474 6339,1447 6695,1463 6843,1470 6981,1472 7001,1468 7038,1461 7078,1272 7108,955 7151,487 7225,392 7496,462 7752,528 7799,580 7776,777 7767,861 7755,969 7750,1017 7744,1065 7727,1212 7712,1344 7677,1632 7670,1619 7879,1672 7972,1695 8089,1726 8140,1741 8252,1774 8638,2051 8733,2166 8772,2214 8867,2278 8958,2318 9676,2637 10011,3385 9643,3850 9560,3955 9568,3993 9673,3993 9713,3993 9816,4015 9901,4041 9987,4067 10100,4097 10153,4109 10329,4147 10389,4371 10300,4654 L 10259,4786 10409,4979 C 10491,5086 10581,5217 10609,5271 10807,5657 11338,5661 11554,5279 11595,5206 11638,5132 11649,5114 11660,5097 11736,5073 11818,5061 12022,5032 12049,5018 12102,4913 12181,4759 12359,4613 12469,4613 12714,4613 13036,4744 13248,4930 13338,5009 13421,5060 13480,5071 13948,5158 14393,5951 14125,6219 L 14014,6330 13834,6312 C 13699,6299 13615,6274 13504,6213 13293,6098 13135,6079 13049,6159 13013,6192 12943,6233 12892,6249 12653,6325 12166,6809 11893,7241 11666,7601 10564,7729 10162,7441 9955,7293 9583,7148 9176,7058 9074,7035 8923,7001 8841,6982 8759,6963 8662,6941 8624,6934 8530,6913 8188,7052 7999,7187 7916,7246 7726,7377 7576,7478 7426,7580 7261,7694 7210,7732 7158,7770 7053,7844 6975,7898 6897,7952 6789,8036 6734,8086 6679,8136 6562,8228 6473,8290 6384,8352 6254,8463 6185,8536 6116,8609 5971,8762 5864,8877 5664,9089 5202,9475 5148,9475 5132,9475 5074,9512 5021,9558 4967,9604 4873,9667 4812,9697 4683,9763 4540,9880 4228,10178 3985,10409 3973,10414 3838,10342 3668,10251 3584,10271 3497,10426 3354,10679 3170,10742 2898,10630 Z"/>
       </g>
      </g>
      <g class="com.sun.star.drawing.ClosedBezierShape">
       <g id="id4">
        <rect class="BoundingBox" stroke="none" fill="none" x="2608" y="10172" width="543" height="359"/>
        <path fill="rgb(0,0,0)" stroke="none" d="M 3101,10515 C 3221,10515 3092,10211 2959,10177 2864,10153 2618,10246 2608,10309 2595,10398 2902,10559 3021,10525 3039,10520 3075,10515 3101,10515 Z"/>
       </g>
      </g>
      <g class="com.sun.star.drawing.ClosedBezierShape">
       <g id="id5">
        <rect class="BoundingBox" stroke="none" fill="none" x="1389" y="9085" width="2136" height="1222"/>
        <path fill="rgb(0,0,0)" stroke="none" d="M 3403,10218 C 3534,9947 3545,9890 3499,9757 3384,9431 3182,9233 2992,9261 2936,9269 2825,9282 2747,9291 2622,9304 2602,9314 2589,9366 2570,9441 2496,9434 2485,9357 2474,9282 2432,9254 2292,9228 2097,9191 2076,9231 2235,9332 2378,9424 2537,9597 2579,9708 2647,9886 2574,9855 2369,9619 2199,9424 2003,9250 1951,9250 1937,9250 1850,9211 1758,9164 1504,9032 1389,9065 1389,9269 1389,9497 1612,9704 2068,9899 2192,9952 2350,10023 2419,10057 2566,10130 2598,10132 2753,10076 2910,10021 3031,10059 3179,10209 3303,10336 3345,10337 3403,10218 Z"/>
       </g>
      </g>
      <g class="com.sun.star.drawing.ClosedBezierShape">
       <g id="id6">
        <rect class="BoundingBox" stroke="none" fill="none" x="2998" y="5860" width="5072" height="4147"/>
        <path fill="rgb(42,96,153)" stroke="none" d="M 4217,9922 C 4301,9852 4302,9848 4255,9813 4196,9769 4238,9697 4322,9697 4391,9697 4850,9487 4989,9391 5365,9133 5480,9044 5573,8934 5720,8760 5804,8631 5804,8579 5804,8554 5870,8476 5951,8405 6032,8333 6127,8223 6161,8159 6221,8048 6245,8032 6604,7851 7322,7489 7386,7417 6872,7552 6587,7627 6466,7632 6478,7571 6484,7540 6548,7512 6709,7470 7078,7373 7749,7082 7993,6913 8141,6811 8059,6522 7849,6407 7696,6322 7674,6297 7723,6261 7825,6187 7716,5938 7571,5913 7520,5905 7442,5885 7398,5870 7291,5834 7211,5892 7094,6093 7046,6174 6965,6290 6914,6349 6863,6408 6821,6466 6821,6476 6821,6595 6494,6608 6333,6495 6098,6330 5888,6485 5606,7033 5449,7336 5439,7349 5267,7470 5104,7584 5084,7608 5034,7747 4857,8236 4702,8482 4570,8482 4476,8482 4407,8512 4316,8592 4126,8761 3803,8917 3596,8939 2934,9010 2889,9031 3140,9152 3331,9245 3539,9458 3647,9673 3811,10001 4018,10091 4217,9922 Z"/>
       </g>
      </g>
      <g class="com.sun.star.drawing.ClosedBezierShape">
       <g id="id7">
        <rect class="BoundingBox" stroke="none" fill="none" x="8461" y="5237" width="4342" height="2141"/>
        <path fill="rgb(42,96,153)" stroke="none" d="M 11244,7340 C 11735,7235 11940,7005 12056,6426 12117,6125 12214,6045 12252,6264 12269,6361 12367,6374 12465,6291 12505,6258 12594,6202 12664,6167 12870,6063 12837,5598 12615,5476 12582,5458 12509,5417 12451,5385 12126,5207 11706,5185 11706,5347 11706,5404 11725,5415 11880,5443 12026,5470 12053,5482 12053,5519 12053,5539 12034,5555 12010,5556 11753,5564 11644,5595 11477,5710 11389,5770 11404,5798 11632,5989 11832,6157 11900,6257 11854,6313 11806,6371 11750,6355 11582,6237 11323,6055 11273,6104 11495,6324 11690,6516 11747,6719 11582,6634 11543,6613 11492,6597 11471,6597 11386,6597 11282,6516 11186,6374 11005,6107 10813,6001 10675,6092 10596,6143 10588,6134 10528,5922 L 10478,5746 10285,5613 C 10093,5482 9846,5422 9846,5507 9846,5587 9586,5784 9272,5941 9064,6046 8894,6150 8814,6224 8732,6299 8644,6353 8571,6373 8414,6417 8427,6474 8602,6513 8722,6540 8950,6642 9251,6805 9312,6838 9412,6882 9474,6903 9673,6971 10154,7174 10218,7217 10310,7279 10570,7343 10811,7364 11033,7383 11047,7382 11244,7340 Z"/>
       </g>
      </g>
      <g class="com.sun.star.drawing.ClosedBezierShape">
       <g id="id8">
        <rect class="BoundingBox" stroke="none" fill="none" x="5914" y="5279" width="1128" height="1167"/>
        <path fill="rgb(42,96,153)" stroke="none" d="M 6601,6410 C 6648,6386 6696,6328 6730,6255 6759,6191 6813,6100 6849,6052 7119,5695 7104,5446 6808,5383 6727,5366 6629,5336 6593,5317 6442,5240 6382,5282 6427,5431 6465,5559 6404,5658 6108,5947 5883,6167 5862,6226 6009,6226 6065,6226 6146,6261 6261,6337 6447,6459 6488,6468 6601,6410 Z"/>
       </g>
      </g>
      <g class="com.sun.star.drawing.ClosedBezierShape">
       <g id="id9">
        <rect class="BoundingBox" stroke="none" fill="none" x="7313" y="4091" width="2839" height="2187"/>
        <path fill="rgb(42,96,153)" stroke="none" d="M 8484,6249 C 8570,6233 8630,6207 8652,6175 8671,6148 8694,6125 8704,6125 8714,6125 8764,6086 8815,6039 8865,5991 8921,5952 8939,5952 8956,5952 9014,5920 9067,5882 9120,5843 9245,5765 9344,5707 9517,5606 9846,5272 9846,5197 9846,5162 9991,4818 10079,4646 10213,4382 10175,4315 9814,4181 9551,4085 9405,4071 9171,4120 8974,4161 8973,4201 9169,4216 9343,4229 9405,4276 9283,4304 9028,4361 8809,4458 8789,4523 8762,4608 8504,4845 8344,4933 8263,4977 8185,5023 8172,5034 8099,5091 7733,5256 7620,5282 7448,5321 7454,5356 7632,5357 7810,5357 7995,5410 8006,5464 8022,5545 7897,5545 7396,5463 7291,5446 7283,5528 7384,5594 7422,5618 7485,5671 7525,5711 7566,5751 7644,5805 7699,5832 7970,5960 8040,6015 8087,6134 8147,6286 8201,6302 8484,6249 Z"/>
       </g>
      </g>
      <g class="com.sun.star.drawing.ClosedBezierShape">
       <g id="id10">
        <rect class="BoundingBox" stroke="none" fill="none" x="12272" y="4803" width="1808" height="1373"/>
        <path fill="rgb(0,0,0)" stroke="none" d="M 14003,6156 C 14237,5999 13880,5341 13510,5249 13418,5225 13200,5094 13092,4997 12936,4857 12554,4759 12416,4824 12211,4922 12226,5087 12451,5207 12772,5379 12996,5582 12996,5702 12996,5783 13069,5847 13196,5878 13268,5895 13360,5940 13406,5981 13563,6118 13908,6219 14003,6156 Z"/>
       </g>
      </g>
      <g class="com.sun.star.drawing.ClosedBezierShape">
       <g id="id11">
        <rect class="BoundingBox" stroke="none" fill="none" x="6593" y="4377" width="2015" height="849"/>
        <path fill="rgb(102,102,102)" stroke="none" d="M 7413,5197 C 7932,5144 8795,4549 8569,4400 8508,4361 8504,4362 8368,4487 8103,4729 7428,5076 7194,5090 7159,5092 7116,5104 7100,5116 7064,5143 6786,5148 6677,5124 6586,5103 6561,5159 6640,5208 6682,5234 7106,5228 7413,5197 Z"/>
       </g>
      </g>
      <g class="com.sun.star.drawing.ClosedBezierShape">
       <g id="id12">
        <rect class="BoundingBox" stroke="none" fill="none" x="5555" y="1662" width="2741" height="3325"/>
        <path fill="rgb(42,96,153)" stroke="none" d="M 6772,4940 C 6755,4907 6758,4879 6784,4842 6838,4765 6965,4812 6986,4916 7000,4988 7003,4990 7115,4973 7696,4888 8640,4300 8165,4319 8087,4322 7928,4311 7812,4295 7473,4248 7424,4254 7333,4350 7205,4485 7054,4493 6973,4369 6902,4261 6856,3389 6913,3237 6955,3124 6992,2721 7010,2164 L 7026,1662 6910,1662 C 6791,1662 6768,1683 6832,1736 7004,1879 6780,2096 6466,2089 6249,2084 6200,2105 6301,2159 6377,2200 6497,2480 6497,2616 6497,2720 6494,2727 6451,2700 6412,2676 6392,2680 6336,2724 6239,2800 6223,2774 6241,2569 6259,2354 6240,2252 6187,2273 6167,2281 6150,2296 6150,2307 6150,2318 6106,2397 6053,2484 5904,2725 5727,3076 5755,3076 5769,3076 5808,3057 5843,3034 5952,2963 5976,3071 5877,3187 5854,3214 5828,3258 5819,3283 5806,3318 5787,3325 5741,3314 5707,3306 5651,3292 5617,3283 5534,3263 5534,3320 5617,3398 5660,3438 5679,3482 5677,3533 5667,3817 5771,4172 5875,4211 5897,4219 5965,4267 6026,4318 6203,4464 6427,4560 6368,4465 6329,4403 6367,4359 6459,4359 6547,4359 6621,4432 6621,4518 6621,4600 6660,4608 6774,4549 6966,4450 6969,4613 6776,4723 6635,4803 6598,4905 6690,4959 6762,5001 6800,4992 6772,4940 Z"/>
       </g>
      </g>
      <g class="com.sun.star.drawing.ClosedBezierShape">
       <g id="id13">
        <rect class="BoundingBox" stroke="none" fill="none" x="6007" y="4069" width="270" height="188"/>
        <path fill="rgb(0,0,0)" stroke="none" d="M 6021,4087 C 6060,4049 6230,4074 6260,4122 6319,4216 6200,4292 6083,4235 6020,4204 5986,4123 6021,4087 Z"/>
       </g>
      </g>
      <g class="com.sun.star.drawing.ClosedBezierShape">
       <g id="id14">
        <rect class="BoundingBox" stroke="none" fill="none" x="6079" y="4117" width="95" height="75"/>
        <path fill="rgb(102,102,102)" stroke="none" d="M 6170,4160 C 6164,4143 6138,4124 6113,4120 6072,4112 6070,4116 6099,4151 6138,4198 6184,4204 6170,4160 Z"/>
       </g>
      </g>
      <g class="com.sun.star.drawing.ClosedBezierShape">
       <g id="id15">
        <rect class="BoundingBox" stroke="none" fill="none" x="5757" y="3602" width="264" height="275"/>
        <path fill="rgb(0,0,0)" stroke="none" d="M 5879,3873 C 5758,3830 5710,3633 5814,3607 5971,3568 6099,3792 5960,3863 5936,3876 5899,3880 5879,3873 Z"/>
       </g>
      </g>
      <g class="com.sun.star.drawing.ClosedBezierShape">
       <g id="id16">
        <rect class="BoundingBox" stroke="none" fill="none" x="5839" y="3719" width="81" height="66"/>
        <path fill="rgb(102,102,102)" stroke="none" d="M 5917,3725 C 5895,3703 5825,3744 5842,3770 5853,3788 5869,3787 5893,3767 5913,3750 5924,3732 5917,3725 Z"/>
       </g>
      </g>
      <g class="com.sun.star.drawing.ClosedBezierShape">
       <g id="id17">
        <rect class="BoundingBox" stroke="none" fill="none" x="6126" y="4788" width="324" height="151"/>
        <path fill="rgb(42,96,153)" stroke="none" d="M 6448,4896 C 6448,4877 6428,4861 6404,4861 6380,4861 6329,4844 6290,4824 6169,4761 6072,4786 6159,4858 6259,4942 6448,4966 6448,4896 Z"/>
       </g>
      </g>
      <g class="com.sun.star.drawing.ClosedBezierShape">
       <g id="id18">
        <rect class="BoundingBox" stroke="none" fill="none" x="6824" y="4889" width="64" height="62"/>
        <path fill="rgb(102,102,102)" stroke="none" d="M 6873,4904 C 6841,4872 6809,4897 6832,4935 6841,4949 6860,4954 6874,4946 6891,4935 6891,4922 6873,4904 Z"/>
       </g>
      </g>
      <g class="com.sun.star.drawing.ClosedBezierShape">
       <g id="id19">
        <rect class="BoundingBox" stroke="none" fill="none" x="6280" y="4625" width="175" height="137"/>
        <path fill="rgb(42,96,153)" stroke="none" d="M 6408,4746 C 6484,4717 6458,4609 6379,4628 6284,4650 6260,4678 6298,4723 6333,4765 6350,4769 6408,4746 Z"/>
       </g>
      </g>
      <g class="com.sun.star.drawing.ClosedBezierShape">
       <g id="id20">
        <rect class="BoundingBox" stroke="none" fill="none" x="1813" y="2431" width="4259" height="2116"/>
        <path fill="rgb(42,96,153)" stroke="none" d="M 6070,4522 C 6075,4505 6033,4468 5976,4439 5737,4317 5581,4058 5581,3784 5581,3708 5566,3665 5528,3631 5500,3605 5460,3554 5441,3516 5399,3435 5275,3424 5074,3485 4828,3560 4672,3489 4563,3252 4547,3216 4518,3154 4499,3113 4480,3072 4458,3002 4449,2958 4436,2893 4421,2877 4373,2877 4248,2877 4183,2769 4201,2590 4210,2502 4212,2431 4204,2431 4196,2431 4126,2463 4048,2502 3844,2606 3664,2653 3410,2671 3130,2691 2948,2746 2914,2821 2879,2903 2762,2932 2546,2912 2435,2902 2276,2908 2153,2926 1793,2978 1735,3027 1903,3135 2043,3224 2141,3342 2238,3535 2286,3630 2347,3746 2373,3793 L 2420,3878 2797,3884 C 3239,3891 3247,3886 3065,3709 2880,3528 2969,3493 3251,3635 3349,3684 3769,3820 3825,3820 3869,3820 3839,3764 3757,3692 3557,3517 3650,3485 3894,3647 4122,3798 4216,3803 4216,3666 4216,3595 4288,3614 4384,3710 4433,3759 4539,3851 4620,3915 4700,3978 4812,4068 4869,4115 4926,4161 5034,4227 5109,4261 5184,4296 5272,4344 5303,4368 5444,4476 6045,4597 6070,4522 Z"/>
       </g>
      </g>
      <g class="com.sun.star.drawing.ClosedBezierShape">
       <g id="id21">
        <rect class="BoundingBox" stroke="none" fill="none" x="6452" y="4417" width="64" height="62"/>
        <path fill="rgb(102,102,102)" stroke="none" d="M 6501,4431 C 6469,4400 6437,4424 6460,4462 6469,4477 6488,4482 6502,4474 6519,4463 6519,4449 6501,4431 Z"/>
       </g>
      </g>
      <g class="com.sun.star.drawing.ClosedBezierShape">
       <g id="id22">
        <rect class="BoundingBox" stroke="none" fill="none" x="7003" y="4001" width="208" height="339"/>
        <path fill="rgb(68,50,5)" stroke="none" d="M 7206,4288 C 7215,4259 7206,4203 7184,4158 7163,4115 7140,4061 7133,4037 7098,3923 6979,4109 7009,4230 7037,4339 7177,4381 7206,4288 Z"/>
       </g>
      </g>
      <g class="com.sun.star.drawing.ClosedBezierShape">
       <g id="id23">
        <rect class="BoundingBox" stroke="none" fill="none" x="7267" y="3120" width="466" height="934"/>
        <path fill="rgb(42,96,153)" stroke="none" d="M 7642,4022 C 7650,4013 7670,3855 7686,3671 7703,3487 7723,3295 7730,3244 7745,3144 7655,3088 7567,3143 7399,3247 7201,3851 7289,3990 7330,4054 7590,4078 7642,4022 Z"/>
       </g>
      </g>
      <g class="com.sun.star.drawing.ClosedBezierShape">
       <g id="id24">
        <rect class="BoundingBox" stroke="none" fill="none" x="7755" y="3919" width="476" height="100"/>
        <path fill="rgb(42,96,153)" stroke="none" d="M 8217,4002 C 8266,3953 8166,3919 7970,3919 7770,3919 7718,3941 7779,4002 7800,4023 8195,4023 8217,4002 Z"/>
       </g>
      </g>
      <g class="com.sun.star.drawing.ClosedBezierShape">
       <g id="id25">
        <rect class="BoundingBox" stroke="none" fill="none" x="7465" y="1761" width="2146" height="2258"/>
        <path fill="rgb(42,96,153)" stroke="none" d="M 9164,3955 C 9218,3929 9292,3885 9328,3858 9364,3830 9426,3789 9466,3768 9593,3699 9662,3179 9562,3051 9467,2930 9156,2662 9061,2620 9008,2596 8943,2565 8916,2549 8888,2534 8823,2498 8771,2470 8718,2442 8639,2380 8596,2332 8376,2090 7836,1761 7659,1761 7636,1761 7465,2621 7465,2739 7465,3005 7924,3024 7985,2761 8034,2551 8049,2530 8148,2530 8195,2530 8255,2517 8280,2501 8382,2438 8450,2541 8366,2634 8303,2703 8344,2716 8440,2657 8526,2604 8878,2577 8878,2624 8878,2662 8819,2704 8765,2704 8696,2704 8358,2872 8358,2906 8358,2922 8393,2926 8451,2917 8915,2839 8947,2953 8500,3099 8332,3154 8237,3896 8385,3997 8449,4041 9052,4008 9164,3955 Z"/>
       </g>
      </g>
      <g class="com.sun.star.drawing.ClosedBezierShape">
       <g id="id26">
        <rect class="BoundingBox" stroke="none" fill="none" x="515" y="3263" width="1370" height="730"/>
        <path fill="rgb(255,245,206)" stroke="none" d="M 1228,3958 C 1255,3939 1366,3837 1474,3731 1652,3558 1681,3539 1772,3536 1904,3533 1920,3461 1814,3343 1730,3249 1682,3245 1228,3292 846,3332 853,3329 592,3580 485,3683 490,3734 604,3706 672,3689 775,3599 845,3496 883,3439 885,3439 1004,3480 1071,3503 1157,3521 1196,3521 1317,3521 1274,3793 1138,3888 1112,3906 1091,3937 1091,3957 1091,4002 1165,4003 1228,3958 Z"/>
       </g>
      </g>
      <g class="com.sun.star.drawing.ClosedBezierShape">
       <g id="id27">
        <rect class="BoundingBox" stroke="none" fill="none" x="7769" y="3728" width="410" height="84"/>
        <path fill="rgb(42,96,153)" stroke="none" d="M 8177,3779 C 8189,3742 7814,3707 7779,3742 7749,3772 7783,3787 7911,3802 8053,3818 8167,3808 8177,3779 Z"/>
       </g>
      </g>
      <g class="com.sun.star.drawing.ClosedBezierShape">
       <g id="id28">
        <rect class="BoundingBox" stroke="none" fill="none" x="6976" y="2988" width="473" height="710"/>
        <path fill="rgb(255,245,206)" stroke="none" d="M 7169,3628 C 7206,3520 7344,3269 7408,3192 7482,3102 7453,3039 7318,2999 7205,2965 7094,3014 7094,3098 7094,3123 7065,3186 7030,3238 6986,3301 6970,3351 6980,3390 6988,3422 7001,3478 7008,3516 7016,3553 7027,3609 7034,3640 7050,3721 7138,3713 7169,3628 Z"/>
       </g>
      </g>
      <g class="com.sun.star.drawing.ClosedBezierShape">
       <g id="id29">
        <rect class="BoundingBox" stroke="none" fill="none" x="252" y="3291" width="391" height="330"/>
        <path fill="rgb(255,245,206)" stroke="none" d="M 371,3561 C 406,3528 472,3480 519,3454 696,3357 676,3231 498,3322 398,3373 273,3482 273,3518 273,3531 266,3560 258,3581 235,3640 298,3629 371,3561 Z"/>
       </g>
      </g>
      <g class="com.sun.star.drawing.ClosedBezierShape">
       <g id="id30">
        <rect class="BoundingBox" stroke="none" fill="none" x="7780" y="3507" width="397" height="115"/>
        <path fill="rgb(42,96,153)" stroke="none" d="M 7943,3511 C 7808,3492 7731,3545 7816,3599 7863,3629 8154,3627 8173,3597 8192,3565 8108,3533 7943,3511 Z"/>
       </g>
      </g>
      <g class="com.sun.star.drawing.ClosedBezierShape">
       <g id="id31">
        <rect class="BoundingBox" stroke="none" fill="none" x="74" y="3398" width="174" height="149"/>
        <path fill="rgb(255,245,206)" stroke="none" d="M 187,3507 C 264,3456 266,3398 191,3398 123,3398 74,3441 74,3502 74,3558 107,3559 187,3507 Z"/>
       </g>
      </g>
      <g class="com.sun.star.drawing.ClosedBezierShape">
       <g id="id32">
        <rect class="BoundingBox" stroke="none" fill="none" x="7836" y="3325" width="348" height="101"/>
        <path fill="rgb(42,96,153)" stroke="none" d="M 8173,3396 C 8197,3356 8185,3352 8003,3333 7861,3318 7837,3322 7837,3355 7837,3416 8137,3453 8173,3396 Z"/>
       </g>
      </g>
      <g class="com.sun.star.drawing.ClosedBezierShape">
       <g id="id33">
        <rect class="BoundingBox" stroke="none" fill="none" x="4822" y="2133" width="1231" height="1266"/>
        <path fill="rgb(255,245,206)" stroke="none" d="M 5123,3287 C 5218,3225 5325,3175 5360,3175 5513,3175 5804,2817 5804,2628 5804,2606 5832,2562 5866,2530 5942,2459 6052,2276 6052,2222 6052,2168 6003,2173 5938,2235 5881,2288 5798,2278 5851,2225 5910,2166 5879,2133 5767,2133 5636,2133 5625,2149 5522,2487 5391,2913 5155,3239 4940,3290 4858,3310 4808,3347 4826,3376 4855,3424 4958,3393 5123,3287 Z"/>
       </g>
      </g>
      <g class="com.sun.star.drawing.ClosedBezierShape">
       <g id="id34">
        <rect class="BoundingBox" stroke="none" fill="none" x="7938" y="3139" width="314" height="86"/>
        <path fill="rgb(42,96,153)" stroke="none" d="M 8091,3143 C 7931,3159 7925,3161 7947,3198 7968,3231 8111,3232 8196,3200 8302,3159 8244,3128 8091,3143 Z"/>
       </g>
      </g>
      <g class="com.sun.star.drawing.ClosedBezierShape">
       <g id="id35">
        <rect class="BoundingBox" stroke="none" fill="none" x="4663" y="3125" width="100" height="51"/>
        <path fill="rgb(255,245,206)" stroke="none" d="M 4762,3150 C 4762,3136 4740,3125 4713,3125 4685,3125 4663,3136 4663,3150 4663,3164 4685,3175 4713,3175 4740,3175 4762,3164 4762,3150 Z"/>
       </g>
      </g>
      <g class="com.sun.star.drawing.ClosedBezierShape">
       <g id="id36">
        <rect class="BoundingBox" stroke="none" fill="none" x="4313" y="2041" width="1094" height="1048"/>
        <path fill="rgb(255,245,206)" stroke="none" d="M 5022,2964 C 5251,2718 5461,2250 5392,2140 5301,1995 4984,2016 4984,2166 4984,2295 4868,2334 4655,2277 4470,2228 4427,2254 4357,2465 4280,2692 4301,2754 4439,2706 4615,2645 4790,2743 4619,2807 4514,2847 4533,2964 4649,2986 4693,2994 4750,3023 4774,3051 4835,3118 4900,3095 5022,2964 Z"/>
       </g>
      </g>
      <g class="com.sun.star.drawing.ClosedBezierShape">
       <g id="id37">
        <rect class="BoundingBox" stroke="none" fill="none" x="7118" y="571" width="533" height="2267"/>
        <path fill="rgb(68,50,5)" stroke="none" d="M 7400,2381 C 7438,2146 7486,1893 7505,1819 7525,1745 7541,1636 7541,1578 7541,1519 7550,1439 7563,1399 7708,924 7667,571 7466,571 7296,571 7243,694 7228,1129 7224,1238 7209,1405 7195,1501 7095,2189 7092,2821 7189,2833 7317,2850 7326,2832 7400,2381 Z"/>
       </g>
      </g>
      <g class="com.sun.star.drawing.ClosedBezierShape">
       <g id="id38">
        <rect class="BoundingBox" stroke="none" fill="none" x="3968" y="168" width="2708" height="2015"/>
        <path fill="rgb(102,102,102)" stroke="none" d="M 4352,2136 C 4461,2111 4685,2037 4848,1973 5419,1749 5749,1711 6101,1831 6601,2001 6860,1932 6520,1719 6255,1554 6101,1367 6101,1213 6101,1080 5794,560 5648,444 5205,94 5048,83 4728,377 4517,571 4238,1002 4351,959 4403,939 4443,1003 4425,1077 4412,1126 4418,1141 4448,1141 4476,1141 4488,1164 4488,1214 4488,1254 4500,1294 4514,1303 4532,1314 4532,1329 4513,1352 4498,1371 4484,1420 4483,1462 4481,1517 4469,1538 4437,1538 4412,1538 4385,1563 4375,1593 L 4357,1649 4337,1593 C 4325,1562 4299,1530 4278,1522 4257,1514 4239,1484 4237,1455 4235,1425 4226,1471 4216,1556 4202,1682 4178,1741 4083,1882 3880,2185 3930,2233 4352,2136 Z"/>
       </g>
      </g>
      <g class="com.sun.star.drawing.ClosedBezierShape">
       <g id="id39">
        <rect class="BoundingBox" stroke="none" fill="none" x="5492" y="1443" width="412" height="121"/>
        <path fill="rgb(128,128,128)" stroke="none" d="M 5497,1537 C 5511,1523 5583,1501 5657,1489 5731,1476 5817,1458 5848,1449 5888,1437 5903,1443 5903,1471 5903,1497 5862,1518 5778,1536 5615,1571 5463,1572 5497,1537 Z"/>
       </g>
      </g>
      <g class="com.sun.star.drawing.ClosedBezierShape">
       <g id="id40">
        <rect class="BoundingBox" stroke="none" fill="none" x="4302" y="1231" width="110" height="177"/>
        <path fill="rgb(102,102,102)" stroke="none" d="M 4410,1335 C 4414,1301 4401,1260 4381,1243 4327,1198 4278,1293 4317,1366 4352,1431 4401,1416 4410,1335 Z"/>
       </g>
      </g>
     </g>
    </g>
   </g>
  </g>
 </g>
</svg>