<?xml version="1.0" encoding="UTF-8" standalone="no"?>
<!-- Created with Inkscape (http://www.inkscape.org/) -->

<svg
   version="1.1"
   id="svg1301"
   width="880"
   height="880"
   viewBox="0 0 880 880"
   sodipodi:docname="hooded-man-clip-art-vector.svg"
   inkscape:version="1.2 (dc2aedaf03, 2022-05-15)"
   xmlns:inkscape="http://www.inkscape.org/namespaces/inkscape"
   xmlns:sodipodi="http://sodipodi.sourceforge.net/DTD/sodipodi-0.dtd"
   xmlns="http://www.w3.org/2000/svg"
   xmlns:svg="http://www.w3.org/2000/svg">
  <defs
     id="defs1305">
    <clipPath
       clipPathUnits="userSpaceOnUse"
       id="clipPath1317">
      <path
         d="M 0,660 H 660 V 0 H 0 Z"
         id="path1315" />
    </clipPath>
  </defs>
  <sodipodi:namedview
     id="namedview1303"
     pagecolor="#ffffff"
     bordercolor="#000000"
     borderopacity="0.25"
     inkscape:showpageshadow="2"
     inkscape:pageopacity="0.0"
     inkscape:pagecheckerboard="0"
     inkscape:deskcolor="#d1d1d1"
     showgrid="false"
     inkscape:zoom="0.95113636"
     inkscape:cx="441.05137"
     inkscape:cy="440.52569"
     inkscape:window-width="1920"
     inkscape:window-height="1017"
     inkscape:window-x="-8"
     inkscape:window-y="-8"
     inkscape:window-maximized="1"
     inkscape:current-layer="g1309">
    <inkscape:page
       x="0"
       y="0"
       id="page1307"
       width="880"
       height="880" />
  </sodipodi:namedview>
  <g
     id="g1309"
     inkscape:groupmode="layer"
     inkscape:label="Page 1"
     transform="matrix(1.3333333,0,0,-1.3333333,0,880)">
    <g
       id="g1311">
      <g
         id="g1313"
         clip-path="url(#clipPath1317)">
        <g
           id="g1319"
           transform="translate(587.2441,364.624)">
          <path
             d="m 0,0 c 0,-143.78 -116.557,-260.339 -260.338,-260.339 -143.782,0 -260.339,116.559 -260.339,260.339 0,143.782 116.557,260.339 260.339,260.339 C -116.557,260.339 0,143.782 0,0"
             style="fill:#000000;fill-opacity:1;fill-rule:nonzero;stroke:none"
             id="path1321" />
        </g>
        <g
           id="g1323"
           transform="translate(251.7593,326.3633)">
          <path
             d="m 0,0 -5.618,-2.57 15.069,2.084 2.063,0.285 -1.402,4.823 z m 59.38,150.264 c 0,0 1.15,-0.523 1.569,-0.472 0.42,0.054 0.893,3.993 0.893,3.993 -0.031,0.853 -4.033,0 -4.033,0 z m 25.902,-27.946 c 1.568,0.988 0.705,2.426 0.115,2.337 -0.588,-0.091 -5.418,-0.81 -6.787,-0.899 -1.368,-0.091 -9.702,0.988 -10.092,1.525 -0.392,0.539 -2.354,0.9 -2.354,0.9 0.49,-0.54 2.33,-4.671 3.764,-5.3 0.58,-0.253 2.618,-0.449 4.909,-0.592 0.667,-0.042 1.587,1.423 2.268,1.392 2.755,-0.133 0.501,-1.459 5.647,-1.698 1.063,-0.048 0.959,1.348 2.53,2.335 m 19.574,51.762 c 0.953,1.584 1.365,2.237 1.937,2.523 0.973,0.485 1.571,1.177 1.825,2.115 0.439,1.615 -0.19,3.734 -0.916,5.384 l -0.497,-1.344 -0.214,-0.193 c -5.01,-4.458 -8.762,-5.13 -13.18,-5.086 1.641,-6.336 4.066,-15.368 4.631,-16.502 0.16,-0.325 0.326,-0.648 0.494,-0.957 0.59,3.627 2.242,8.991 3.652,10.668 0.803,0.958 1.616,2.308 2.268,3.392 M 85.569,147.317 c -0.922,0.998 -1.006,0 -1.006,0 l -1.846,-0.922 v -3.111 c 0,-0.807 -1.006,1.805 -1.006,1.805 0,0 -1.509,-0.461 -2.011,-0.923 -0.505,-0.46 -3.354,-0.69 -3.446,-0.69 -0.091,0 -0.875,-1.403 -0.875,-1.403 0,0 -0.795,1.326 -2.102,1.326 -1.306,0 -4.059,-0.539 -4.187,-0.309 -0.125,0.232 -0.964,-1.612 -0.964,-1.612 0,0 -0.419,1.307 -1.007,1.612 -0.586,0.309 -2.096,0.463 -3.015,1.076 l -0.422,0.154 -1.006,-0.893 c 0,0 2.766,-2.102 4.04,-3.255 1.274,-1.152 8.287,-1.075 10.467,-1.075 2.181,0 7.716,4.302 8.386,5.223 0.672,0.922 0.922,1.998 0,2.997 m 0.56,7.5 c -0.535,0.169 -3.142,0.64 -4.322,0.708 0.191,-0.403 0.336,-1.137 0.584,-2.585 0.088,-0.507 0.209,-1.21 0.307,-1.615 0.314,0.02 0.734,0.08 1.363,0.346 0.85,0.36 0.982,0.841 1.041,1.264 0.086,0.642 0.828,1.073 1.555,1.348 -0.213,0.28 -0.416,0.492 -0.528,0.534 m -20.799,0.617 -1.595,-0.519 c 0.019,-1.758 0.322,-3.481 0.67,-3.687 1.189,-0.633 1.952,-0.786 2.115,-0.767 0.027,0.012 0.113,0.078 0.196,0.141 0.226,0.172 0.759,0.573 1.353,0.163 0.251,-0.166 2.009,-0.869 3.667,-0.661 0.376,0.048 0.683,0.092 0.935,0.127 0.971,0.137 1.443,0.205 1.91,-0.305 0.428,-0.1 1.9,-0.028 3.169,0.114 l 0.355,0.308 c -0.316,3.172 -0.192,4.261 -0.038,4.692 -1.637,-0.22 -3.399,-0.418 -4.032,-0.374 -0.552,0.053 -0.741,-0.612 -0.762,-0.687 l -0.3,-1.025 -1.97,1.911 c -0.811,0.151 -1.745,0.277 -2.07,0.247 -0.217,-0.197 -0.741,-0.791 -1.148,-1.288 l -0.472,-0.578 z m 30.653,-7.885 c 0,0 -1.775,-8.886 0,-7.657 1.271,0.88 2.625,10.403 3.291,15.735 -0.166,0.092 -0.354,0.239 -0.566,0.469 z m -46.612,-5.327 c 1.775,-1.23 0.433,5.327 0.433,5.327 l -3.711,9.136 c 0,0 1.502,-13.234 3.278,-14.463 m 53.446,55.961 0.559,1.452 c 0,0 -0.5,0.513 -3.969,0.616 0.056,-0.308 0.201,-2.259 -1.86,-3.416 -1.263,-0.71 -4.158,0.037 -4.158,0.037 -1.519,0.794 -2.06,1.765 -2.06,1.765 l -1.536,-0.077 v -1.485 c 0,0 4.583,-1.946 6.483,-2.129 1.902,-0.182 6.541,3.237 6.541,3.237 M 75.342,184.251 c -0.783,-0.513 -2.46,-1.658 -3.68,-2.499 -0.038,-0.822 -0.486,-2.583 -1.672,-6.786 -0.454,-1.611 -1.01,-3.586 -1.11,-4.192 0.736,-0.659 4.819,-3.173 6.432,-2.557 1.659,0.639 3.83,1.846 4.624,2.3 l -0.152,2.301 -2.901,8.609 c -0.55,1.034 -1.189,2.213 -1.541,2.824 m 9.877,-11.885 c 1.117,0.922 -2.49,3.585 -2.49,3.585 0,0 -0.887,-1.351 -1.834,-2.864 l 0.039,-0.118 0.199,-3.049 c 1.598,0.823 3.479,1.944 4.086,2.446 m -25.464,2.121 c 1.118,-0.923 6.546,-3.953 6.588,-3.337 0.039,0.614 -4.098,6.921 -4.098,6.921 0,0 -3.608,-2.662 -2.49,-3.584 m 20.622,21.337 h -12.75 l -0.207,-0.816 c 3.048,-1.62 6.656,-3.098 7.474,-2.793 1.119,0.432 4.548,2.241 5.874,2.95 z M 32.806,179.619 c -0.065,0.156 -0.155,0.506 -0.258,0.97 -0.342,-2.833 -0.134,-6.009 0.748,-6.492 1.213,-0.664 3.571,-2.857 6.768,-5.882 1.02,-0.969 2.225,-2.106 2.953,-2.743 0.211,0.376 0.471,0.863 0.714,1.316 1.597,2.986 4.009,7.5 6.689,8.96 0.194,0.199 0.573,1.337 0.806,2.479 l -1.098,1.711 -9.047,-1.819 -0.11,0.003 c -7.637,0.209 -7.944,0.953 -8.165,1.497 m 17.226,13.528 c 1.354,0.842 3.453,2.57 3.453,2.57 0,0 -2.734,1.34 -3.826,1.032 -0.579,-1.609 -1.96,-2.877 -4.642,-2.261 -2.684,0.613 -2.768,3.381 -2.768,3.381 l -2.196,-0.709 c 0,0 0.855,-1.366 2.196,-3.002 1.342,-1.637 5.779,-2.258 7.783,-1.011 m 45.277,16.501 c 4.01,-0.401 8.442,-0.774 10.211,-0.832 0.106,0.248 0.254,0.524 0.453,0.838 -10.234,7.053 -26.193,17.716 -28.294,18.226 -2.457,0.597 -12.065,-0.198 -15.56,-0.556 -2.763,0 -14.371,-10.414 -22.664,-18.635 2.859,-0.479 5.934,-0.97 6.39,-0.984 0.059,0.029 0.596,0.278 0.989,0.459 1.67,0.776 3.75,1.74 5.055,0.666 1.015,-0.837 7.824,-5.942 8.769,-6.65 l 1.493,-0.648 c 0.427,0.186 1.112,0.442 2.231,0.797 1.634,7.844 2.038,8.213 2.334,8.486 l 0.536,0.488 0.712,-0.257 c 0.746,-0.296 1.099,-0.435 1.838,-9.875 l 9.562,-0.342 0.806,0.731 -0.582,13.625 5.663,-12.557 9.617,7.065 z M 228.686,-3.5 c 1.566,-0.35 3.105,-0.895 4.576,-1.609 2.926,-1.469 5.543,-3.586 7.768,-6.016 1.824,-1.963 3.404,-4.131 4.828,-6.397 1.978,13.606 2.494,25.275 1.154,27.639 -4.152,6.921 -3.912,19.42 -3.142,27.86 -0.17,0.051 -0.338,0.11 -0.51,0.162 -3.553,1.056 -7.158,1.92 -10.803,2.571 -1.824,0.357 -3.654,0.551 -5.5,0.784 -1.838,0.118 -3.697,0.285 -5.547,0.216 -3.691,-0.073 -7.443,-0.546 -10.943,-2.049 3.201,2.063 6.965,3.217 10.756,3.924 1.906,0.39 3.83,0.54 5.765,0.735 1.928,0.079 3.875,0.194 5.809,0.141 3.873,-0.039 7.752,-0.31 11.594,-0.786 0.006,-10e-4 0.013,-0.002 0.021,-0.003 1.233,10.135 -16.801,42.764 -25.918,53.988 -3.373,4.153 -23.168,7.03 -39.074,9.342 -5.166,0.749 -10.244,1.492 -15.051,2.281 l -17.445,-5.939 -9.68,-3.19 c -3.24,-1.022 -6.467,-2.114 -9.771,-2.904 3.174,1.188 6.23,2.664 9.314,4.073 l 9.196,4.349 10.388,5.038 c -9.348,1.834 -16.892,4.044 -20.65,7.209 -0.573,0.482 -1.086,1.043 -1.553,1.671 -2.184,-3.963 -4.527,-7.846 -7.088,-11.606 -1.896,-2.76 -3.916,-5.453 -6.178,-7.989 -2.226,-2.427 -4.607,-4.808 -7.722,-6.531 -3.114,-2.941 -6.272,-5.787 -9.555,-8.555 -0.978,-0.822 -1.974,-1.631 -2.982,-2.431 0.056,-0.186 0.125,-0.368 0.177,-0.555 0.766,-2.764 1.081,-5.621 1.012,-8.405 -0.131,-5.598 -1.633,-10.832 -3.453,-15.742 -1.84,-4.922 -4.082,-9.571 -6.174,-14.192 -1.045,-2.311 -2.051,-4.615 -2.892,-6.94 -0.833,-2.319 -1.514,-4.678 -1.676,-6.98 -0.172,-2.301 0.31,-4.494 1.705,-6.186 1,-1.205 2.138,-2.348 3.338,-3.435 5.002,-3.894 11.195,-6.82 17.633,-8.993 -1.44,3.614 -2.194,7.475 -2.194,11.419 0,17.104 13.914,31.017 31.018,31.017 8.916,0 17.349,-3.845 23.203,-10.436 1.193,3.622 2.465,7.207 3.785,10.768 2.553,6.846 5.291,13.603 8.152,20.299 2.868,6.693 5.846,13.33 8.979,19.89 -2.555,-6.804 -4.945,-13.664 -7.215,-20.557 -2.268,-6.892 -4.4,-13.824 -6.332,-20.792 -1.92,-6.97 -3.656,-13.983 -4.943,-21.009 -0.653,-3.51 -1.153,-7.028 -1.44,-10.498 -0.207,-2.571 -0.285,-5.159 -0.086,-7.545 1.11,-0.192 2.213,-0.403 3.317,-0.625 0.263,0.6 0.529,1.256 0.793,1.877 l 1.84,4.461 3.753,8.962 c 2.553,5.964 5.231,11.882 8.073,17.718 2.824,5.844 5.906,11.578 9.285,17.121 3.408,5.504 7.078,10.957 11.793,15.398 -4.252,-4.87 -7.318,-10.57 -10.143,-16.305 -2.787,-5.771 -5.26,-11.685 -7.474,-17.702 -2.235,-6.009 -4.297,-12.08 -6.237,-18.196 l -1.8,-5.838 c 0.453,0.245 0.896,0.497 1.349,0.74 3.274,1.746 6.588,3.416 9.959,4.969 3.377,1.543 6.813,2.983 10.371,4.11 1.782,0.548 3.602,1.023 5.465,1.261 0.93,0.128 1.881,0.149 2.817,0.086 0.933,-0.128 1.872,-0.373 2.601,-0.95 -1.672,0.846 -3.541,0.443 -5.225,-0.058 -1.707,-0.527 -3.347,-1.27 -4.947,-2.083 -3.195,-1.657 -6.244,-3.603 -9.226,-5.644 -2.977,-2.052 -5.885,-4.21 -8.741,-6.432 -0.578,-0.454 -1.15,-0.923 -1.728,-1.381 1.254,0.077 2.508,0.159 3.766,0.227 4.4,0.23 8.802,0.399 13.21,0.47 4.407,0.067 8.819,0.043 13.227,-0.212 2.203,-0.128 4.41,-0.328 6.596,-0.67 2.152,-0.378 4.439,-0.762 6.254,-2.044 -1.963,0.998 -4.192,1.037 -6.338,1.104 -2.162,0.027 -4.328,-0.089 -6.489,-0.273 -4.326,-0.371 -8.631,-0.971 -12.923,-1.658 -4.291,-0.691 -8.571,-1.477 -12.836,-2.325 -0.889,-0.177 -1.776,-0.367 -2.664,-0.55 6.705,-2.251 13.244,-5.081 19.244,-8.871 3.209,-2.037 6.304,-4.272 9.086,-6.869 2.783,-2.59 5.297,-5.461 7.433,-8.582 2.11,-3.147 3.746,-6.569 4.981,-10.1 1.23,-3.545 1.816,-7.246 2.179,-10.922 -0.673,3.641 -1.568,7.231 -3.06,10.584 -1.496,3.34 -3.352,6.494 -5.619,9.323 -2.295,2.806 -4.906,5.32 -7.742,7.543 -2.832,2.228 -5.938,4.089 -9.127,5.75 -6.397,3.322 -13.319,5.564 -20.34,7.185 -3.518,0.803 -7.075,1.427 -10.647,1.889 -0.631,0.082 -1.271,0.153 -1.91,0.228 l -0.752,-2.006 c 2.246,-1.746 4.34,-3.673 6.221,-5.779 2.672,-2.91 4.795,-6.297 6.357,-9.838 1.692,-3.508 2.367,-7.351 2.875,-11.064 -1.127,3.607 -2.388,7.146 -4.531,10.17 -2.021,3.06 -4.459,5.8 -7.31,8.013 -2.811,2.25 -5.897,4.112 -9.145,5.584 -1.629,0.725 -3.283,1.383 -4.967,1.919 -0.838,0.281 -1.681,0.522 -2.525,0.743 -0.084,0.021 -0.168,0.041 -0.254,0.062 C 147.143,3.602 142.569,2.67 138.461,1.83 131.258,0.355 125.569,-0.809 122.11,0.123 119.995,0.693 116.405,1.266 112.251,1.928 102.85,3.428 91.153,5.293 84.239,8.909 77.89,12.231 55.953,9.936 43.731,8.163 l 0.08,-0.168 C 41.555,7.113 39.362,5.205 37.553,2.957 35.73,0.695 34.211,-1.916 32.945,-4.654 c -1.939,-4.244 -3.333,-8.811 -4.056,-13.52 23.485,-6.58 50.404,-18.553 55.584,-21.572 0.658,-0.387 1.881,-0.924 3.563,-1.59 -1.387,2.285 -2.815,4.549 -4.278,6.779 -1.484,2.25 -3.013,4.469 -4.656,6.6 -0.82,1.064 -1.67,2.107 -2.586,3.088 -0.923,0.965 -1.879,1.939 -3.121,2.504 1.322,-0.367 2.467,-1.211 3.544,-2.041 1.081,-0.848 2.102,-1.766 3.095,-2.709 1.986,-1.887 3.869,-3.877 5.707,-5.901 3.189,-3.525 6.23,-7.154 9.218,-10.869 3.143,-1.105 6.815,-2.351 10.846,-3.685 l 0.281,0.4 c 0.323,-0.227 0.643,-0.492 0.955,-0.81 15.424,-5.088 35.585,-11.354 50.85,-15.961 l 49.121,-12.983 c 2.588,2.543 5.799,4.158 9.166,5.852 0.256,0.129 0.514,0.259 0.77,0.388 0.947,0.606 6.73,4.342 7.898,4.994 4.018,2.239 9.52,5.303 11.305,9.411 3.08,7.084 5.65,16.677 7.582,26.384 -0.154,1.256 -0.473,2.782 -0.809,4.172 -0.349,1.432 -0.758,2.856 -1.228,4.256 -0.949,2.799 -2.127,5.537 -3.662,8.061 -1.522,2.533 -3.42,4.843 -5.766,6.697 -1.184,0.904 -2.475,1.686 -3.865,2.312 -1.401,0.6 -2.895,1.008 -4.44,1.27 1.561,0.053 3.149,-0.047 4.723,-0.373 M -36.949,-92.606 c 8.284,-0.787 16.624,-2.992 25.247,-6.666 26.85,-11.445 54.226,-5.837 72.34,-2.123 0.321,0.067 0.623,0.129 0.939,0.192 1.116,1.935 2.587,3.465 4.062,4.763 2.178,1.85 4.507,3.288 6.885,4.532 2.38,1.242 4.817,2.287 7.279,3.213 2.465,0.916 4.957,1.726 7.481,2.382 -4.655,-2.316 -9.1,-5.048 -13.041,-8.222 -1.957,-1.59 -3.769,-3.322 -5.222,-5.18 -0.012,-0.019 -0.027,-0.039 -0.041,-0.059 3.308,0.571 6.138,0.905 8.439,0.797 10.396,-0.498 20.345,2.657 23.085,4.223 1.508,7.617 4.418,37.51 1.098,41.551 0.004,-0.004 0.053,-0.063 0.162,-0.139 l 0.281,0.399 c -6.355,2.125 -11.939,4.078 -15.832,5.599 l -5.834,-16.051 v 16.438 c 0,0.102 -10.416,5.935 -21.478,11.764 -15.73,6.289 -36.083,13.312 -49.904,14.824 v -0.006 c -1.359,0.131 -3.067,0.17 -4.635,0.16 -1.603,-0.019 -3.216,-0.07 -4.83,-0.193 -3.23,-0.225 -6.461,-0.651 -9.663,-1.256 -6.413,-1.197 -12.7,-3.184 -18.699,-5.881 -3.002,-1.348 -5.898,-2.934 -8.725,-4.65 -2.818,-1.733 -5.501,-3.69 -8.102,-5.766 -5.137,-4.227 -9.763,-9.135 -13.779,-14.545 3.491,5.76 7.68,11.141 12.521,15.947 2.454,2.366 5.02,4.633 7.761,6.694 2.751,2.045 5.607,3.972 8.605,5.674 5.649,3.205 11.682,5.791 17.953,7.675 0.016,0.155 0.035,0.319 0.056,0.494 -0.178,0.049 -0.358,0.102 -0.531,0.149 l -1.778,0.455 c -1.203,0.291 -2.428,0.561 -3.658,0.811 -2.463,0.5 -4.954,0.933 -7.453,1.298 -5.005,0.729 -10.06,1.209 -15.124,1.319 -5.067,0.123 -10.147,-0.143 -15.155,-0.99 -4.977,-0.903 -9.938,-2.403 -14.291,-5.21 3.979,3.321 8.86,5.497 13.851,7.043 5.023,1.497 10.223,2.409 15.445,2.92 5.225,0.526 10.483,0.668 15.742,0.551 2.63,-0.062 5.26,-0.193 7.898,-0.402 1.32,-0.104 2.639,-0.229 3.97,-0.383 l 2.018,-0.26 c 0.058,-0.009 0.113,-0.017 0.171,-0.027 0.018,0.105 0.035,0.209 0.053,0.312 -2.108,2.1 -4.267,4.166 -6.454,6.168 -4.73,4.323 -9.677,8.414 -14.877,12.163 -5.209,3.727 -10.672,7.141 -16.507,9.813 -5.814,2.68 -12.072,4.607 -18.59,4.81 6.505,0.432 13.095,-0.898 19.288,-3.062 6.226,-2.152 12.157,-5.1 17.855,-8.398 5.185,-3.023 10.178,-6.371 15.011,-9.933 -0.667,1.536 -1.333,3.072 -1.982,4.612 -3.37,8.024 -6.554,16.084 -9.666,24.166 -6.207,16.167 -12.144,32.407 -17.901,48.709 7.305,-15.665 14.782,-31.247 22.497,-46.681 3.863,-7.711 7.793,-15.386 11.867,-22.939 1.633,-3.025 3.309,-6.014 5.014,-8.959 4,2.527 12.631,5.065 16.745,6.187 0.487,0.71 1.002,1.368 1.564,1.942 L -15.065,62.193 18.874,13.481 c 0.517,0.08 1.04,0.139 1.582,0.153 7.976,0.189 16.216,-0.906 18.136,-1.183 5.388,0.891 38.172,6.035 47.975,0.91 2.349,-1.229 5.5,-2.26 8.971,-3.144 -3.114,3.522 -6.17,8.51 -7.524,10.826 -0.215,0.22 -0.435,0.429 -0.644,0.657 -0.973,1.087 -1.752,2.41 -2.178,3.82 -0.445,1.406 -0.606,2.86 -0.576,4.26 0.056,2.813 0.701,5.445 1.457,7.969 0.769,2.524 1.687,4.957 2.627,7.353 1.879,4.79 3.84,9.467 5.336,14.208 1.486,4.726 2.55,9.545 2.404,14.199 -0.045,1.815 -0.297,3.586 -0.742,5.288 -0.918,-0.584 -1.854,-1.152 -3.043,-1.655 -0.321,-0.131 -0.664,-0.258 -1.076,-0.365 -0.409,-0.103 -0.875,-0.21 -1.578,-0.177 -0.536,0.017 -1.086,0.198 -1.549,0.428 -0.235,-0.273 -0.451,-0.524 -0.795,-0.774 -0.414,-0.282 -0.832,-0.549 -1.33,-0.672 -0.502,-0.148 -1.006,-0.213 -1.399,-0.175 -0.215,0.008 -0.426,0.028 -0.633,0.057 -0.195,0.031 -0.209,0.052 -0.322,0.079 l -1.068,0.32 c -0.352,0.113 -0.576,0.224 -0.871,0.336 -0.561,0.223 -1.11,0.452 -1.608,0.69 -1.041,0.463 -2.027,0.951 -3.019,1.439 -0.585,0.291 -1.15,0.599 -1.73,0.895 -2.638,-4.286 -5.046,-8.785 -7.058,-13.368 -1.442,-3.312 -2.677,-6.708 -3.503,-10.167 -0.811,-3.447 -1.238,-7.006 -0.664,-10.359 0.274,-1.674 0.854,-3.262 1.719,-4.679 l 0.751,-1.122 c 0.265,-0.417 0.566,-0.806 0.795,-1.252 0.501,-0.855 0.934,-1.756 1.292,-2.691 1.474,-3.735 1.148,-8.2 -0.916,-11.545 -1.973,-3.403 -5.083,-5.876 -8.453,-7.544 -3.38,-1.62 -7.23,-2.557 -10.91,-1.847 3.713,-0.451 7.396,0.743 10.549,2.527 3.142,1.827 5.908,4.411 7.457,7.589 1.627,3.149 1.594,6.848 0.137,9.942 -0.363,0.775 -0.785,1.527 -1.275,2.241 -0.219,0.372 -0.516,0.7 -0.774,1.049 l -0.88,1.136 c -1.202,1.67 -2.046,3.586 -2.516,5.548 -0.963,3.945 -0.734,7.95 -0.127,11.762 0.628,3.827 1.689,7.526 2.957,11.123 1.269,3.599 2.757,7.102 4.388,10.531 0.617,1.285 1.251,2.55 1.901,3.809 -1.564,0.841 -3.122,1.685 -4.675,2.539 -3.796,2.094 -7.557,4.215 -11.316,6.374 l -0.497,0.286 -0.215,0.365 c -2.069,3.477 -5.917,5.845 -10.093,7.305 -4.202,1.476 -8.735,2.264 -13.29,2.812 -4.565,0.55 -9.186,0.841 -13.809,1.261 -2.313,0.217 -4.629,0.463 -6.919,0.887 -1.143,0.237 -2.288,0.475 -3.385,0.882 -0.074,0.028 -0.147,0.06 -0.221,0.087 -3.902,-2.204 -8.847,-3.013 -12.6,-3.625 -0.245,-0.039 -0.507,-0.082 -0.774,-0.126 4.751,-2.269 9.484,-4.569 14.187,-6.939 3.914,-1.979 7.811,-3.996 11.652,-6.118 1.921,-1.065 3.826,-2.154 5.696,-3.311 0.932,-0.581 1.858,-1.17 2.752,-1.814 0.885,-0.642 1.795,-1.294 2.477,-2.159 -0.775,0.774 -1.739,1.3 -2.686,1.827 -0.951,0.525 -1.933,0.995 -2.919,1.457 -1.972,0.917 -3.981,1.762 -5.997,2.583 -4.037,1.638 -8.124,3.164 -12.22,4.653 -8.192,2.962 -16.463,5.774 -24.727,8.462 -0.082,0.005 -0.151,0.008 -0.232,0.011 -12.656,0.629 -38.993,1.941 -57.17,-21.166 -3.853,-4.895 -5.141,-14.887 -6.083,-22.183 -0.36,-2.806 -0.667,-5.078 -1.021,-6.933 0.173,0.04 0.35,0.082 0.527,0.13 1.676,0.416 3.533,1.025 5.446,1.539 3.827,1.069 8.078,1.679 12.152,1.134 4.083,-0.506 7.863,-2.029 11.189,-4.031 3.335,-2.021 6.302,-4.463 9.019,-7.113 -3.113,2.167 -6.413,4.054 -9.853,5.424 -3.439,1.359 -7.044,2.113 -10.538,1.958 -3.51,-0.134 -6.804,-1.177 -10.07,-2.695 -1.655,-0.751 -3.289,-1.615 -5.185,-2.445 -0.944,-0.413 -1.962,-0.818 -3.145,-1.123 -0.99,-0.255 -2.119,-0.433 -3.358,-0.404 -11.733,-13.962 -10.397,-19.599 -7.591,-31.353 l 0.209,-0.87 c 0.636,-2.678 1.002,-5.135 1.149,-7.404 1.127,0.455 2.254,0.892 3.405,1.315 2.679,0.971 5.398,1.827 8.171,2.497 2.766,0.668 5.597,1.158 8.452,1.271 2.833,0.081 5.791,-0.193 8.261,-1.497 -2.692,0.701 -5.421,0.298 -7.988,-0.367 -2.579,-0.708 -5.051,-1.75 -7.443,-2.949 -2.391,-1.199 -4.703,-2.565 -6.948,-4.022 -2.205,-1.439 -4.441,-3.015 -6.395,-4.588 -1.027,-5.404 -3.308,-9.601 -5.439,-13.503 l -0.077,-0.141 c -2.632,-4.826 -2.685,-12.834 -1.428,-17.584 0.475,1.068 0.946,2.139 1.465,3.189 1.461,2.934 3.077,5.825 5.179,8.412 1.059,1.276 2.263,2.504 3.765,3.323 1.487,0.842 3.378,0.976 4.799,0.209 -1.57,0.461 -3.15,-0.033 -4.277,-0.992 -1.15,-0.961 -2.005,-2.252 -2.729,-3.598 -1.432,-2.715 -2.399,-5.688 -3.215,-8.688 -0.803,-3.013 -1.43,-6.08 -1.952,-9.166 -0.074,-0.435 -0.13,-0.877 -0.199,-1.314 0.157,-1.397 0.285,-3.039 0.431,-5.051 0.759,-10.498 1.904,-26.365 12.964,-30.178 4.266,-1.472 7.74,-3.543 11.099,-5.545 6.085,-3.627 11.834,-7.056 22.028,-6.486 l 0.89,0.051 c 9.414,4.074 23.724,10.361 28.325,12.885 1.94,1.062 -7.224,-6.426 -14.506,-12.159 m 65.269,74.59 c 0.012,0.633 0.041,1.266 0.078,1.899 l -16.252,2.441 c 0.059,-0.304 0.119,-0.572 0.182,-0.81 4.886,-0.723 10.326,-1.959 15.992,-3.53 m -38.349,-126.015 c 3.564,-0.864 7.196,-1.678 10.713,-2.334 l 1.099,-0.186 c 0.288,-0.015 0.662,-0.019 1.122,0.002 l 2.706,0.141 3.875,0.24 c 0.202,0.137 0.458,0.297 0.787,0.49 8.986,5.248 14.096,12.723 16.769,17.951 -2.682,-0.197 -4.913,-0.166 -6.524,0.186 -11.511,2.512 -25.117,7.012 -36.419,13.291 -7.144,3.969 -20.388,5.594 -29.17,6.254 3.151,-10.098 7.941,-22.697 13.815,-31.654 3.51,-0.53 7.008,-1.118 10.479,-1.84 3.603,-0.742 7.169,-1.68 10.748,-2.541 M 9.398,124.962 c 7.46,-7.393 16.646,-18.009 16.646,-18.009 l -13.681,9.275 c 0.193,-2.05 -0.057,-3.932 -0.765,-5.652 -1.055,-2.563 -2.946,-4.382 -5.211,-5.715 0.012,-0.004 0.023,-0.008 0.034,-0.011 1.102,-0.325 2.247,-0.479 3.385,-0.634 2.286,-0.259 4.592,-0.34 6.901,-0.395 4.619,-0.094 9.256,-0.06 13.919,-0.291 4.657,-0.236 9.359,-0.698 14.01,-1.966 2.318,-0.642 4.622,-1.524 6.786,-2.804 1.98,-1.168 3.822,-2.732 5.28,-4.645 3.763,-1.823 7.551,-3.623 11.343,-5.379 1.656,-0.765 3.319,-1.521 4.98,-2.269 0.332,0.578 0.664,1.158 1.012,1.74 0.177,0.295 0.402,0.538 0.65,0.751 v 0.002 c -0.983,0.324 -1.952,0.685 -2.904,1.086 -3.995,1.664 -7.752,3.888 -11.178,6.538 -3.455,2.321 -6.879,4.691 -10.245,7.143 -3.372,2.442 -6.664,4.993 -9.993,7.487 -3.33,2.492 -6.72,4.904 -10.18,7.212 -3.5,2.377 -6.167,5.721 -8.517,9.162 -4.626,6.985 -8.008,14.694 -10.824,22.546 -2.776,7.877 -4.952,15.98 -6.263,24.259 -1.252,8.262 -1.736,16.788 -0.026,25.142 0.874,4.151 2.384,8.257 4.859,11.833 2.54,3.462 5.324,6.547 8.271,9.569 5.893,6.01 12.507,11.203 18.948,16.43 6.433,5.218 12.649,10.707 17.328,17.402 l 0.053,0.075 0.068,0.071 3.96,4.101 c -0.019,0.066 -0.034,0.131 -0.052,0.197 -1.184,4.322 -2.54,8.596 -4.004,12.831 -0.733,2.117 -1.494,4.224 -2.281,6.319 l -0.558,1.453 C 32.6,269.21 1.526,239.046 -4.663,225.195 c -3.281,-7.345 -4.738,-16.928 -6.026,-25.384 -1.298,-8.539 -2.324,-15.286 -4.925,-19.067 -3.022,-4.395 1.589,-22.801 21.301,-49.959 1.485,-2.047 2.717,-3.983 3.711,-5.823 m 19.46,-136.571 -17.125,2.574 c 0.012,-0.729 0.048,-1.41 0.097,-2.053 l 16.773,-2.521 c 0.073,0.668 0.158,1.336 0.255,2 m 1.046,5.326 -17.91,2.349 C 11.89,-4.803 11.817,-5.66 11.776,-6.5 l 17.502,-2.633 c 0.185,0.955 0.391,1.904 0.626,2.85 m 52.78,88.671 c 0.283,-0.112 0.543,-0.192 0.811,-0.283 0.003,0.474 -0.016,0.995 -0.059,1.521 -0.106,1.206 -0.287,2.456 -0.498,3.719 -0.451,0.026 -0.902,0.067 -1.352,0.114 -0.187,-1.371 -1.146,-2.483 -2.434,-2.895 -0.133,-0.194 -0.265,-0.396 -0.398,-0.591 0.339,-0.143 0.68,-0.301 1.02,-0.44 0.974,-0.397 1.951,-0.798 2.91,-1.145 m -2.338,5.229 c -0.23,0.032 -0.463,0.061 -0.693,0.101 0.148,-0.388 0.219,-0.801 0.207,-1.22 0.256,0.316 0.428,0.697 0.486,1.119 m 10.047,-5.768 c 0.006,10e-4 0.018,0.004 0.023,0.005 -0.009,0 -0.023,0.004 -0.033,0.004 -0.168,-0.005 -0.101,-0.031 0.01,-0.009 m 7.727,10.183 c 1.523,1.261 2.865,2.738 4.093,4.289 1.428,1.812 2.729,3.722 3.95,5.681 4.835,7.875 8.654,16.325 12.175,24.856 3.502,8.545 6.506,17.298 9.077,26.157 1.257,4.435 2.392,8.913 3.16,13.441 0.373,2.264 0.672,4.544 0.713,6.814 0.041,1.14 -0.041,2.248 -0.18,3.372 l -0.457,3.435 c -1.201,9.14 -2.856,18.238 -5.903,26.886 -3.035,8.607 -7.509,16.819 -14.031,23.121 -3.22,3.149 -6.949,5.858 -10.759,8.36 -3.844,2.475 -7.846,4.718 -11.95,6.769 -8.203,4.084 -16.776,7.563 -25.479,10.347 l -0.233,0.075 -0.133,0.107 c 0.214,-2.13 0.382,-4.265 0.472,-6.406 6.451,-2.174 28.381,-10.112 41.918,-21.793 16.012,-13.814 18.42,-38.794 20.094,-51.981 1.674,-13.186 -19.912,-70.671 -31.709,-78.624 -0.971,-0.655 -1.973,-1.152 -2.992,-1.536 -0.03,-1.913 -0.022,-3.823 0.045,-5.697 0.023,-0.565 0.052,-1.127 0.088,-1.687 0.511,0.13 1.017,0.278 1.519,0.445 0.028,0.197 0.074,0.389 0.137,0.578 -0.322,0.537 -0.52,1.157 -0.52,1.826 0,1.963 1.596,3.559 3.559,3.559 1.551,0 2.861,-1.006 3.346,-2.394 M 33.713,3.757 16.687,5.308 15.34,3.263 32.454,1.207 c 0.381,0.863 0.805,1.711 1.259,2.55 M 137.455,6.75 c 2.629,0.539 5.35,1.094 8.073,1.571 l 15.927,31.996 c -5.392,6.705 -13.554,10.657 -22.218,10.657 -15.719,0 -28.506,-12.786 -28.506,-28.505 0,-4.344 1,-8.577 2.885,-12.44 4.123,-1.228 8.273,-2.162 12.213,-2.867 1.4,-0.106 2.798,-0.225 4.181,-0.348 1.801,-0.158 3.621,-0.317 5.442,-0.435 0.586,0.164 1.164,0.357 1.732,0.59 -0.455,-0.216 -0.928,-0.389 -1.402,-0.558 0.556,0.113 1.117,0.227 1.673,0.339 m -75.768,253.2 c 0.029,-0.228 0.052,-0.457 0.082,-0.685 l 1.74,-1.431 c 8.792,-2.89 17.296,-6.41 25.532,-10.574 4.153,-2.109 8.21,-4.415 12.122,-6.97 3.888,-2.593 7.67,-5.359 11.039,-8.704 6.714,-6.712 11.164,-15.267 14.115,-24.084 2.957,-8.863 4.473,-18.088 5.527,-27.274 l 0.403,-3.444 c 0.125,-1.171 0.193,-2.376 0.129,-3.544 -0.081,-2.354 -0.424,-4.665 -0.84,-6.952 -0.852,-4.574 -2.065,-9.052 -3.403,-13.485 -2.701,-8.858 -5.928,-17.536 -9.467,-26.08 -3.58,-8.519 -7.457,-16.955 -12.353,-24.815 -1.236,-1.955 -2.551,-3.862 -3.994,-5.671 -1.252,-1.556 -2.617,-3.039 -4.17,-4.302 0.107,-0.339 0.181,-0.694 0.181,-1.068 0,-0.684 -0.203,-1.32 -0.54,-1.864 0.458,-0.747 0.886,-1.515 1.277,-2.305 0.709,0.487 1.416,0.978 2.119,1.48 3.43,2.458 6.816,5.059 10.107,7.714 l 0.225,0.18 0.143,0.062 c 2.754,1.179 5.3,3.284 7.654,5.494 2.35,2.252 4.533,4.724 6.609,7.291 2.852,3.555 5.52,7.279 8.031,11.111 -5.806,8.663 -2.55,30.02 10.268,68.106 0.334,0.993 0.656,1.952 0.869,2.603 -3.207,7.018 -25.845,48.41 -30.547,52.106 -5.834,4.581 -41.56,28.221 -56.181,35.797 0.373,-1.708 0.743,-3.414 1.081,-5.129 0.884,-4.497 1.653,-9.015 2.242,-13.563 M 22.309,-161.289 c 3.639,1.533 7.015,3.625 10.215,5.898 3.203,2.285 6.177,4.885 8.944,7.684 5.567,5.572 10.352,11.896 14.573,18.547 1.552,2.445 2.999,4.957 4.393,7.494 -8.43,-1.783 -16.635,-3.568 -23.576,-4.762 l -17.465,-16.914 c 0,0 -4.34,-1.668 -7.431,-2.672 l 10.211,0.645 c 3.687,0.232 7.374,0.474 11.071,0.662 l 0.085,-0.621 c -3.616,-0.805 -7.24,-1.537 -10.865,-2.264 -3.627,-0.73 -7.255,-1.455 -10.899,-2.109 -1.82,-0.328 -3.644,-0.672 -5.48,-0.963 l -2.798,-0.418 c -0.459,-0.065 -1.008,-0.133 -1.64,-0.145 l -0.521,0.026 -0.385,0.035 -0.741,0.078 c -3.772,0.455 -7.39,1.025 -11.077,1.516 -3.669,0.506 -7.343,0.982 -10.976,1.685 -0.949,0.178 -1.891,0.401 -2.835,0.602 0.983,-0.865 1.988,-1.617 3.012,-2.203 6.117,-3.496 15.754,-9.161 26.545,-15.526 2.098,0 4.19,0.125 6.263,0.407 3.934,0.628 7.751,1.761 11.377,3.318 M 79.641,87.75 c 0.235,-0.042 0.473,-0.073 0.707,-0.108 0.014,0.098 0.031,0.194 0.031,0.295 0,1.27 -1.033,2.302 -2.302,2.302 -0.545,0 -1.036,-0.196 -1.432,-0.512 0.58,0.016 1.169,-0.12 1.703,-0.439 0.616,-0.369 1.047,-0.918 1.293,-1.538 M 60.306,249.293 c -0.429,2.315 -0.948,4.612 -1.523,6.895 l -2.863,-2.95 c -4.929,-6.925 -11.356,-12.502 -17.821,-17.681 -6.511,-5.213 -13.057,-10.293 -18.87,-16.147 -2.886,-2.913 -5.694,-6.022 -8.145,-9.221 -2.328,-3.25 -3.83,-7.085 -4.728,-11.048 -1.776,-7.978 -1.461,-16.373 -0.354,-24.538 1.16,-8.189 3.186,-16.269 5.818,-24.132 2.669,-7.841 5.904,-15.555 10.37,-22.539 2.269,-3.443 4.852,-6.781 8.232,-9.159 3.432,-2.359 6.826,-4.777 10.14,-7.3 3.316,-2.518 6.59,-5.087 9.943,-7.551 3.346,-2.469 6.756,-4.859 10.194,-7.203 v -10e-4 l 0.005,-0.002 c 3.395,-2.662 7.133,-4.907 11.111,-6.594 0.947,-0.405 1.914,-0.773 2.889,-1.102 0.463,1.43 1.79,2.475 3.373,2.475 1.961,0 3.558,-1.596 3.558,-3.558 0,-0.158 -0.027,-0.308 -0.047,-0.46 0.448,-0.049 0.899,-0.094 1.35,-0.123 -0.408,2.427 -0.969,4.901 -1.586,7.302 -8.693,1.323 -16.461,7.723 -16.461,7.723 -15.49,10.465 -17.687,13.371 -30.665,22.161 -12.975,8.791 -32.232,64.491 -17.582,82.91 14.463,18.18 31.546,25.163 43.662,41.843 M 30.599,-3.758 c 0.264,0.858 0.558,1.709 0.872,2.555 L 13.794,0.92 12.463,-1.102 c -0.025,-0.117 -0.057,-0.234 -0.08,-0.349 l 18.194,-2.387 c 0.007,0.025 0.013,0.055 0.022,0.08 M 36.242,7.695 C 33.089,8.09 26.672,8.763 20.58,8.612 19.894,8.595 19.252,8.482 18.647,8.283 L 18.256,7.689 35.126,6.151 c 0.349,0.522 0.724,1.036 1.116,1.544 m 72.368,-98.99 23.844,3.156 0.267,1.397 -23.771,-1.889 c -0.112,-0.934 -0.229,-1.83 -0.34,-2.664 m 96.095,-16.467 c -3.626,-2.502 -14.126,-9.418 -17.582,-14.756 -1.626,-2.517 -6.044,-4.404 -10.503,-5.431 l 16.412,-10.598 -45.391,16.941 c -3.734,1.282 -7.443,2.772 -10.457,4.565 -4.988,2.965 -9.061,3.471 -15.207,3.144 0.373,-0.619 0.748,-1.236 1.131,-1.849 1.994,-3.16 4.15,-6.233 6.465,-9.176 4.638,-5.875 9.894,-11.32 15.939,-15.754 3.016,-2.221 6.207,-4.215 9.582,-5.871 3.385,-1.621 6.938,-2.906 10.608,-3.807 2.769,-0.697 5.615,-1.066 8.478,-1.226 l 17.926,2.066 c 14.572,16.268 24.527,30.248 26.572,33.172 0.699,4.52 0.881,11.559 0.82,18.736 -4.164,-2.853 -10.835,-7.427 -14.793,-10.156 m -95.457,21.676 23.963,1.902 0.217,1.141 -23.89,-0.334 c -0.094,-0.922 -0.192,-1.83 -0.29,-2.709 m -1.271,-9.479 c 8.811,1.122 19.461,2.612 23.732,3.534 l 0.249,1.293 -23.713,-3.139 c -0.094,-0.629 -0.182,-1.184 -0.268,-1.688 M 91.01,82.026 c 0.893,0.316 1.889,0.819 2.901,1.394 -0.502,0.95 -1.073,1.864 -1.721,2.733 -0.504,0.674 -0.689,1.486 -0.594,2.259 -0.5,-0.162 -1.006,-0.305 -1.516,-0.432 0.092,-1.458 0.237,-2.89 0.477,-4.207 0.113,-0.645 0.295,-1.306 0.453,-1.747 m -6.172,-261.532 -3.742,-0.037 -0.908,-0.002 -0.434,0.004 -0.214,0.002 -0.086,0.019 c -0.333,0.053 -1.054,0.188 -1.615,0.301 -2.403,0.487 -4.849,1.039 -7.28,1.606 -4.872,1.105 -9.724,2.365 -14.59,3.535 -4.868,1.166 -9.771,2.156 -14.706,3.012 -4.935,0.851 -9.877,1.666 -14.851,2.337 -2.481,0.364 -4.978,0.659 -7.469,0.973 -2.486,0.309 -5.024,0.545 -7.457,0.92 l -0.24,-0.58 c 2.301,-1.275 4.67,-2.117 7.042,-3.033 2.379,-0.866 4.765,-1.703 7.17,-2.455 4.798,-1.555 9.644,-2.899 14.508,-4.166 4.861,-1.262 9.763,-2.354 14.707,-3.231 4.948,-0.869 9.918,-1.625 14.88,-2.451 2.488,-0.393 4.961,-0.799 7.497,-1.16 0.676,-0.086 1.19,-0.172 2.104,-0.242 l 0.382,-0.02 0.255,0.018 0.506,0.025 0.971,0.066 3.768,0.291 15.002,1.243 c 9.99,0.922 19.98,1.824 29.963,2.873 l -0.034,0.629 c -10.035,-0.008 -20.064,-0.147 -30.095,-0.241 z m 11.867,19 h 85.086 c -18.214,-18.334 -36.095,-30.351 -36.287,-30.48 l -0.267,-0.178 -0.225,-0.229 c -7.34,-7.437 -23.914,-11.209 -46.652,-10.646 -20.253,0.51 -37.408,4.275 -42.005,6.799 -6.814,3.736 -24.828,14.373 -42.25,24.658 -2.908,1.719 -5.783,3.412 -8.585,5.068 1.829,-0.113 3.667,-0.136 5.513,-0.031 4.054,0.326 8.078,1.182 11.959,2.5 3.898,1.297 7.572,3.188 11.093,5.299 3.526,2.123 6.835,4.588 9.942,7.275 6.252,5.352 11.737,11.533 16.662,18.096 2.465,3.287 4.784,6.682 6.966,10.166 0.487,0.779 0.963,1.559 1.434,2.34 10.503,2.125 20.794,3.924 28.872,4.25 6.619,0.267 11.866,0.719 16.2,1.103 0.025,-0.037 0.048,-0.076 0.072,-0.111 1.103,-1.66 2.264,-3.27 3.447,-4.861 2.379,-3.166 4.91,-6.211 7.6,-9.112 5.385,-5.777 11.377,-11.049 18.121,-15.197 3.365,-2.076 6.889,-3.896 10.562,-5.338 3.688,-1.412 7.504,-2.451 11.377,-3.068 0.539,-0.088 1.082,-0.141 1.623,-0.209 z m 13.571,85.838 c -0.014,-0.223 -0.033,-0.451 -0.047,-0.676 l 24.383,-1.502 0.326,1.707 -24.514,3.032 c -0.043,-0.831 -0.091,-1.674 -0.148,-2.561 M 97.075,90.867 c 0,0.08 -0.016,0.156 -0.024,0.234 -0.215,-0.149 -0.433,-0.291 -0.652,-0.431 0.203,-0.132 0.391,-0.293 0.564,-0.473 0.067,0.213 0.112,0.435 0.112,0.67 m -0.748,-0.146 c 0.242,0.153 0.48,0.312 0.714,0.478 -0.162,1.111 -1.111,1.971 -2.267,1.971 -1.272,0 -2.303,-1.032 -2.303,-2.303 0,-0.198 0.031,-0.388 0.08,-0.573 0.09,0.087 0.176,0.179 0.278,0.255 1.054,0.786 2.437,0.81 3.498,0.172 m 60.644,-196.69 c 0.004,0.467 -0.025,0.932 -0.031,1.401 l -2.42,7.791 c -0.269,-0.166 -0.879,-0.452 -1.568,-0.758 l -0.899,-0.615 -2.408,-3.479 0.779,-8.15 17.711,-6.539 23.975,22.359 c -1.225,2.24 -1.561,9.609 -1.639,14.912 l -34.289,9.065 c -0.967,0.291 -2.965,0.894 -5.705,1.73 l -8.133,-23.047 3.338,-2.334 2.602,-1.084 c 2.146,0.063 4.918,0.311 8.371,0.891 2.256,0.549 4.131,0.965 4.724,0.978 0.155,0.002 0.323,-0.004 0.497,-0.011 0.779,0.585 1.566,1.154 2.371,1.712 0.783,0.543 1.582,1.071 2.412,1.551 0.412,0.242 0.839,0.469 1.279,0.666 0.441,0.174 0.912,0.403 1.395,0.321 -0.891,-0.268 -1.46,-1.055 -2.077,-1.713 -0.595,-0.698 -1.156,-1.428 -1.699,-2.176 -0.039,-0.053 -0.074,-0.109 -0.111,-0.162 0.361,-0.026 0.664,-0.072 0.918,-0.139 l 0.902,0.102 c 1.1,0.107 2.197,0.197 3.309,0.218 1.111,0.014 2.22,0.012 3.332,-0.152 1.076,-0.174 2.291,-0.443 3.013,-1.289 -0.923,0.584 -2.007,0.473 -3.015,0.348 -1.02,-0.151 -2.029,-0.453 -3.02,-0.766 -0.992,-0.318 -1.97,-0.703 -2.941,-1.102 l -0.836,-0.359 c -0.485,-0.637 -1.115,-1.164 -1.418,-1.4 l -6.272,-6.463 c -0.177,-0.305 -0.378,-0.578 -0.603,-0.778 -0.203,-0.587 -0.389,-1.183 -0.61,-1.767 -0.216,-0.561 -0.441,-1.119 -0.689,-1.668 -0.254,-0.543 -0.515,-1.1 -0.893,-1.563 0.19,0.561 0.237,1.141 0.286,1.721 0.039,0.582 0.056,1.164 0.062,1.748 m -47.187,25.108 24.127,0.337 0.226,1.192 -24.094,1.484 c -0.082,-1.011 -0.17,-2.017 -0.259,-3.013 m 25.629,8.195 -24.875,3.074 c 0.041,1.055 0.064,2.057 0.08,3.012 l 25.035,-4.82 z"
             style="fill:#ffffff;fill-opacity:1;fill-rule:nonzero;stroke:none"
             id="path1325" />
        </g>
        <g
           id="g1327"
           transform="translate(332.8555,146.8184)">
          <path
             d="m 0,0 h -0.908 l -0.434,0.002 -0.215,0.004 -0.086,0.021 c -0.332,0.051 -1.053,0.184 -1.612,0.299 -2.405,0.486 -4.853,1.039 -7.282,1.604 -4.874,1.105 -9.722,2.367 -14.589,3.537 -4.868,1.166 -9.773,2.156 -14.707,3.01 -4.935,0.855 -9.878,1.668 -14.852,2.339 -2.482,0.364 -4.978,0.661 -7.469,0.973 -2.487,0.309 -5.023,0.545 -7.456,0.92 l -0.242,-0.58 c 2.301,-1.274 4.674,-2.115 7.044,-3.035 2.379,-0.862 4.765,-1.701 7.17,-2.455 4.8,-1.553 9.644,-2.897 14.508,-4.162 4.862,-1.264 9.761,-2.354 14.707,-3.233 4.947,-0.871 9.916,-1.625 14.878,-2.451 2.491,-0.393 4.962,-0.799 7.499,-1.16 0.676,-0.088 1.19,-0.172 2.104,-0.244 l 0.381,-0.018 0.256,0.016 0.506,0.029 0.971,0.064 3.767,0.291 15.002,1.241 c 9.991,0.924 19.981,1.824 29.963,2.875 L 48.871,0.514 C 38.836,0.508 28.807,0.367 18.775,0.275 L 3.742,0.039 Z m 174.154,221.559 c -0.031,0.012 -0.064,0.015 -0.097,0.009 v -0.012 l 0.005,-0.001 c 0.042,-0.005 0.139,-0.028 0.135,-0.02 -0.012,0.01 -0.027,0.017 -0.043,0.024 M 162.637,149.65 c -0.155,1.256 -0.473,2.782 -0.809,4.172 -0.349,1.43 -0.758,2.856 -1.228,4.256 -0.95,2.799 -2.127,5.537 -3.665,8.059 -1.519,2.535 -3.418,4.845 -5.763,6.697 -1.182,0.908 -2.475,1.687 -3.865,2.314 -1.401,0.6 -2.895,1.008 -4.44,1.27 1.559,0.053 3.149,-0.047 4.723,-0.371 1.566,-0.352 3.105,-0.895 4.576,-1.611 2.926,-1.469 5.543,-3.586 7.768,-6.016 1.824,-1.963 3.404,-4.131 4.828,-6.395 1.978,13.604 2.494,25.275 1.154,27.637 -4.152,6.921 -3.912,19.421 -3.143,27.859 -0.169,0.052 -0.338,0.111 -0.509,0.162 -3.553,1.058 -7.159,1.922 -10.803,2.572 -1.824,0.357 -3.654,0.551 -5.5,0.783 -1.838,0.119 -3.697,0.286 -5.547,0.218 -3.691,-0.073 -7.443,-0.548 -10.943,-2.051 3.201,2.064 6.964,3.217 10.756,3.924 1.906,0.39 3.83,0.541 5.765,0.735 1.928,0.081 3.875,0.195 5.809,0.144 3.873,-0.042 7.75,-0.313 11.594,-0.788 0.005,-0.001 0.013,-0.002 0.021,-0.002 1.232,10.133 -16.801,42.763 -25.918,53.986 -3.373,4.155 -23.168,7.031 -39.074,9.342 -5.166,0.751 -10.244,1.492 -15.051,2.281 l -17.445,-5.939 -9.68,-3.189 c -3.24,-1.022 -6.467,-2.114 -9.773,-2.903 3.175,1.187 6.232,2.662 9.314,4.072 l 9.197,4.348 10.389,5.038 c -9.348,1.834 -16.893,4.045 -20.65,7.21 -0.573,0.482 -1.086,1.044 -1.555,1.671 -2.182,-3.962 -4.525,-7.846 -7.086,-11.605 -1.895,-2.762 -3.916,-5.454 -6.178,-7.991 -2.226,-2.426 -4.607,-4.807 -7.722,-6.53 -3.114,-2.942 -6.272,-5.786 -9.555,-8.555 -0.979,-0.823 -1.975,-1.632 -2.984,-2.431 0.058,-0.186 0.127,-0.367 0.179,-0.554 0.766,-2.765 1.08,-5.622 1.01,-8.407 -0.127,-5.597 -1.631,-10.832 -3.451,-15.741 -1.84,-4.922 -4.084,-9.571 -6.174,-14.193 -1.045,-2.31 -2.051,-4.614 -2.891,-6.939 -0.834,-2.319 -1.515,-4.678 -1.677,-6.981 -0.172,-2.3 0.31,-4.492 1.705,-6.185 1,-1.206 2.136,-2.348 3.336,-3.433 5.005,-3.896 11.197,-6.822 17.632,-8.995 -1.437,3.614 -2.193,7.476 -2.193,11.419 0,17.104 13.916,31.018 31.02,31.018 8.916,0 17.349,-3.846 23.203,-10.436 1.193,3.62 2.465,7.206 3.785,10.767 2.553,6.846 5.291,13.602 8.152,20.298 2.867,6.693 5.846,13.332 8.979,19.892 -2.555,-6.805 -4.946,-13.665 -7.215,-20.557 -2.268,-6.894 -4.4,-13.825 -6.332,-20.794 -1.92,-6.969 -3.656,-13.982 -4.943,-21.008 -0.653,-3.511 -1.153,-7.03 -1.44,-10.498 -0.205,-2.57 -0.285,-5.159 -0.086,-7.545 1.11,-0.193 2.213,-0.404 3.316,-0.625 0.262,0.599 0.53,1.257 0.794,1.877 l 1.841,4.461 3.752,8.963 c 2.553,5.963 5.229,11.882 8.075,17.718 2.822,5.842 5.904,11.576 9.283,17.119 3.408,5.504 7.076,10.958 11.793,15.399 -4.252,-4.87 -7.319,-10.57 -10.141,-16.306 -2.789,-5.769 -5.262,-11.684 -7.477,-17.701 -2.234,-6.01 -4.296,-12.081 -6.234,-18.196 l -1.803,-5.839 c 0.454,0.246 0.897,0.498 1.35,0.741 3.273,1.746 6.588,3.414 9.959,4.969 3.377,1.543 6.812,2.983 10.371,4.111 1.781,0.549 3.602,1.022 5.465,1.26 0.929,0.128 1.881,0.149 2.816,0.085 0.934,-0.127 1.873,-0.372 2.602,-0.95 -1.672,0.846 -3.541,0.444 -5.225,-0.057 -1.707,-0.527 -3.347,-1.268 -4.947,-2.083 -3.195,-1.657 -6.244,-3.603 -9.227,-5.644 -2.976,-2.053 -5.884,-4.21 -8.74,-6.432 -0.578,-0.453 -1.15,-0.923 -1.728,-1.381 1.253,0.077 2.509,0.159 3.765,0.227 4.401,0.231 8.803,0.399 13.211,0.47 4.407,0.067 8.819,0.043 13.227,-0.213 2.203,-0.127 4.41,-0.327 6.595,-0.67 2.153,-0.378 4.44,-0.761 6.254,-2.043 -1.962,0.998 -4.191,1.037 -6.337,1.105 -2.163,0.025 -4.329,-0.09 -6.491,-0.275 -4.324,-0.37 -8.629,-0.969 -12.922,-1.656 -4.293,-0.692 -8.57,-1.478 -12.836,-2.327 -0.888,-0.177 -1.775,-0.368 -2.664,-0.549 6.706,-2.251 13.244,-5.081 19.244,-8.871 3.21,-2.037 6.305,-4.27 9.087,-6.869 2.783,-2.59 5.296,-5.461 7.433,-8.582 2.109,-3.145 3.746,-6.571 4.98,-10.1 1.229,-3.545 1.817,-7.246 2.18,-10.922 -0.674,3.641 -1.568,7.231 -3.06,10.584 -1.496,3.34 -3.352,6.494 -5.62,9.324 -2.294,2.805 -4.906,5.319 -7.742,7.541 -2.832,2.229 -5.937,4.09 -9.127,5.752 -6.396,3.321 -13.318,5.563 -20.339,7.184 -3.518,0.803 -7.075,1.427 -10.647,1.891 -0.631,0.08 -1.271,0.151 -1.91,0.224 l -0.752,-2.004 c 2.246,-1.746 4.34,-3.674 6.221,-5.779 2.671,-2.91 4.795,-6.297 6.357,-9.836 1.692,-3.508 2.367,-7.353 2.875,-11.068 -1.127,3.609 -2.389,7.148 -4.531,10.172 -2.022,3.06 -4.459,5.798 -7.311,8.015 -2.81,2.248 -5.896,4.11 -9.144,5.582 -1.629,0.723 -3.283,1.383 -4.967,1.919 -0.838,0.281 -1.682,0.522 -2.526,0.743 -0.082,0.02 -0.167,0.041 -0.253,0.062 -4.344,-0.524 -8.916,-1.455 -13.024,-2.296 -7.203,-1.477 -12.892,-2.641 -16.351,-1.707 -2.116,0.57 -5.704,1.143 -9.862,1.805 -9.398,1.499 -21.097,3.365 -28.01,6.981 -6.349,3.321 -28.285,1.027 -40.507,-0.746 l 0.078,-0.17 c -2.254,-0.88 -4.447,-2.788 -6.255,-5.037 -1.825,-2.261 -3.343,-4.872 -4.609,-7.608 -1.939,-4.247 -3.333,-8.813 -4.056,-13.524 23.485,-6.578 50.404,-18.551 55.584,-21.57 0.658,-0.385 1.881,-0.926 3.562,-1.59 -1.386,2.283 -2.812,4.549 -4.277,6.779 -1.484,2.248 -3.015,4.469 -4.656,6.598 -0.82,1.066 -1.671,2.109 -2.585,3.088 -0.924,0.969 -1.882,1.941 -3.122,2.504 1.322,-0.366 2.466,-1.209 3.544,-2.039 1.081,-0.848 2.102,-1.766 3.095,-2.709 1.986,-1.889 3.869,-3.877 5.709,-5.901 3.187,-3.525 6.228,-7.154 9.218,-10.869 3.141,-1.105 6.813,-2.351 10.844,-3.685 l 0.281,0.4 c 0.322,-0.227 0.643,-0.49 0.957,-0.811 15.422,-5.088 35.582,-11.353 50.848,-15.96 l 49.121,-12.983 c 2.588,2.543 5.799,4.158 9.166,5.852 0.256,0.129 0.514,0.259 0.77,0.39 0.947,0.602 6.73,4.342 7.898,4.992 4.017,2.239 9.52,5.303 11.305,9.413 3.08,7.082 5.648,16.675 7.582,26.382 M 138.402,81.939 C 134.238,79.086 127.566,74.512 123.609,71.783 119.982,69.281 109.482,62.363 106.027,57.027 104.4,54.51 99.982,52.623 95.523,51.594 l 16.412,-10.596 -45.39,16.943 c -3.735,1.28 -7.441,2.77 -10.457,4.563 -4.988,2.965 -9.061,3.469 -15.207,3.144 0.373,-0.619 0.748,-1.236 1.131,-1.849 1.994,-3.162 4.148,-6.233 6.465,-9.178 4.638,-5.873 9.894,-11.318 15.939,-15.754 3.016,-2.217 6.207,-4.211 9.582,-5.869 3.385,-1.621 6.937,-2.908 10.607,-3.809 2.77,-0.695 5.614,-1.062 8.479,-1.222 l 17.926,2.062 c 14.572,16.27 24.527,30.248 26.572,33.174 0.699,4.52 0.879,11.559 0.82,18.736 M 100.695,19.037 H 15.609 l 70.258,8.096 c -0.541,0.068 -1.084,0.119 -1.623,0.209 -3.873,0.619 -7.689,1.656 -11.377,3.068 -3.674,1.442 -7.197,3.262 -10.562,5.338 -6.745,4.148 -12.737,9.42 -18.121,15.197 -2.69,2.899 -5.221,5.946 -7.602,9.112 -1.182,1.591 -2.344,3.199 -3.445,4.861 -0.024,0.037 -0.047,0.074 -0.073,0.111 -4.334,-0.384 -9.58,-0.836 -16.199,-1.103 -8.076,-0.324 -18.369,-2.127 -28.873,-4.25 -0.472,-0.781 -0.945,-1.561 -1.433,-2.34 -2.183,-3.484 -4.502,-6.879 -6.966,-10.164 -4.926,-6.567 -10.41,-12.748 -16.662,-18.098 -3.105,-2.687 -6.417,-5.152 -9.943,-7.275 -3.52,-2.11 -7.194,-4.002 -11.092,-5.299 -3.882,-1.318 -7.905,-2.174 -11.961,-2.5 -1.843,-0.105 -3.683,-0.082 -5.513,0.031 2.804,-1.656 5.678,-3.349 8.588,-5.066 17.42,-10.287 35.434,-20.922 42.247,-24.662 4.599,-2.524 21.754,-6.289 42.009,-6.797 22.736,-0.561 39.31,3.211 46.65,10.646 l 0.225,0.229 0.267,0.178 c 0.192,0.128 18.072,12.148 36.287,30.478 m -203.668,11.022 c 6.118,-3.498 15.756,-9.161 26.547,-15.528 2.097,0 4.189,0.125 6.26,0.407 3.936,0.628 7.753,1.761 11.378,3.316 3.64,1.535 7.015,3.627 10.217,5.9 3.203,2.285 6.177,4.883 8.942,7.686 5.566,5.568 10.353,11.894 14.573,18.543 1.553,2.447 2.998,4.959 4.394,7.496 -8.431,-1.785 -16.635,-3.57 -23.576,-4.762 L -61.703,36.201 c 0,0 -4.339,-1.666 -7.431,-2.672 l 10.21,0.647 c 3.688,0.232 7.375,0.474 11.071,0.662 l 0.084,-0.623 c -3.614,-0.803 -7.237,-1.535 -10.864,-2.262 -3.627,-0.73 -7.253,-1.455 -10.898,-2.109 -1.82,-0.328 -3.645,-0.672 -5.48,-0.965 l -2.799,-0.416 c -0.458,-0.065 -1.006,-0.131 -1.64,-0.145 l -0.519,0.026 -0.386,0.037 -0.74,0.076 c -3.775,0.455 -7.391,1.027 -11.078,1.514 -3.669,0.509 -7.345,0.984 -10.975,1.685 -0.95,0.182 -1.892,0.403 -2.836,0.604 0.985,-0.865 1.986,-1.617 3.011,-2.201 m -23.193,41.492 c 3.149,-10.098 7.939,-22.699 13.814,-31.656 3.51,-0.528 7.008,-1.118 10.478,-1.84 3.604,-0.742 7.168,-1.68 10.748,-2.541 3.564,-0.864 7.196,-1.678 10.714,-2.334 l 1.101,-0.186 c 0.288,-0.014 0.66,-0.019 1.12,0.002 l 2.707,0.143 3.875,0.238 c 0.201,0.137 0.457,0.297 0.785,0.49 8.987,5.248 14.096,12.725 16.77,17.953 -2.681,-0.199 -4.914,-0.168 -6.525,0.184 -11.51,2.512 -25.116,7.01 -36.419,13.289 -7.143,3.971 -20.387,5.596 -29.168,6.258 M 26.881,83.979 c 8.81,1.123 19.461,2.613 23.732,3.535 l 0.248,1.293 -23.713,-3.139 c -0.093,-0.629 -0.183,-1.184 -0.267,-1.689 m 0.633,4.271 23.843,3.156 0.268,1.397 -23.771,-1.889 C 27.74,89.98 27.625,89.084 27.514,88.25 m 0.638,5.209 23.963,1.902 0.217,1.141 -23.891,-0.334 c -0.093,-0.922 -0.189,-1.832 -0.289,-2.709 m 0.535,5.225 24.127,0.337 0.227,1.192 -24.096,1.484 c -0.08,-1.011 -0.166,-2.017 -0.258,-3.013 m 0.446,5.517 24.383,-1.502 0.326,1.707 -24.514,3.032 c -0.043,-0.829 -0.09,-1.674 -0.148,-2.561 -0.016,-0.225 -0.033,-0.451 -0.047,-0.676 m 25.424,3.944 -25.035,4.818 c -0.014,-0.953 -0.042,-1.955 -0.081,-3.008 l 24.875,-3.076 z m 20.529,1.416 c -0.967,0.293 -2.965,0.896 -5.705,1.73 l -8.133,-23.045 3.338,-2.336 2.602,-1.082 c 2.146,0.065 4.917,0.309 8.371,0.891 2.255,0.549 4.13,0.965 4.724,0.976 0.155,0.004 0.322,-0.002 0.496,-0.009 0.78,0.584 1.567,1.154 2.371,1.712 0.784,0.543 1.582,1.069 2.413,1.551 0.412,0.242 0.839,0.467 1.279,0.666 0.441,0.172 0.912,0.403 1.394,0.319 -0.89,-0.266 -1.459,-1.053 -2.076,-1.711 -0.596,-0.698 -1.156,-1.43 -1.699,-2.176 -0.039,-0.053 -0.074,-0.109 -0.111,-0.162 0.361,-0.026 0.664,-0.074 0.917,-0.139 l 0.903,0.102 c 1.1,0.105 2.197,0.197 3.309,0.216 1.111,0.016 2.22,0.014 3.331,-0.152 1.077,-0.172 2.292,-0.441 3.014,-1.285 -0.924,0.582 -2.008,0.471 -3.015,0.344 -1.022,-0.149 -2.03,-0.45 -3.02,-0.764 -0.992,-0.318 -1.971,-0.705 -2.941,-1.102 l -0.836,-0.357 c -0.485,-0.637 -1.114,-1.166 -1.418,-1.402 l -6.272,-6.463 c -0.177,-0.303 -0.379,-0.578 -0.603,-0.778 -0.203,-0.587 -0.389,-1.183 -0.61,-1.767 -0.217,-0.561 -0.443,-1.119 -0.687,-1.668 -0.256,-0.541 -0.518,-1.1 -0.895,-1.563 0.19,0.561 0.237,1.141 0.286,1.721 0.039,0.58 0.056,1.164 0.062,1.748 0.004,0.465 -0.025,0.93 -0.031,1.401 l -2.42,7.791 c -0.27,-0.166 -0.879,-0.452 -1.569,-0.758 l -0.898,-0.615 -2.408,-3.479 0.779,-8.15 17.711,-6.539 23.975,22.359 c -1.225,2.24 -1.561,9.609 -1.639,14.912 z M -45.97,185.695 c 0.348,0.523 0.724,1.037 1.116,1.545 -3.154,0.395 -9.57,1.069 -15.663,0.916 -0.685,-0.016 -1.327,-0.127 -1.933,-0.328 l -0.391,-0.594 z m -2.671,-4.941 c 0.382,0.859 0.805,1.707 1.258,2.548 l -17.027,1.551 -1.346,-2.045 z m -1.879,-5.049 c 0.008,0.029 0.014,0.055 0.022,0.082 0.264,0.857 0.557,1.709 0.871,2.555 l -17.673,2.123 -1.331,-2.022 c -0.026,-0.117 -0.059,-0.232 -0.082,-0.349 z m -1.297,-5.291 c 0.184,0.951 0.388,1.902 0.627,2.848 l -17.912,2.349 c -0.106,-0.869 -0.178,-1.726 -0.218,-2.568 z m -0.422,-2.477 -17.125,2.573 c 0.012,-0.729 0.049,-1.41 0.098,-2.053 l 16.773,-2.521 c 0.071,0.668 0.158,1.335 0.254,2.001 m -16.528,-2.878 c 4.883,-0.723 10.325,-1.961 15.991,-3.53 0.012,0.631 0.041,1.266 0.078,1.899 l -16.25,2.441 c 0.057,-0.305 0.116,-0.572 0.181,-0.81 m -0.816,14.285 -1.403,4.822 -10.11,-4.621 -5.618,-2.57 15.069,2.084 z m 149.942,40.519 c -5.392,6.704 -13.554,10.657 -22.218,10.657 -15.719,0 -28.508,-12.788 -28.508,-28.506 0,-4.344 1,-8.577 2.887,-12.441 4.122,-1.227 8.273,-2.161 12.212,-2.867 1.401,-0.105 2.799,-0.224 4.182,-0.345 1.799,-0.16 3.621,-0.319 5.441,-0.437 0.586,0.164 1.165,0.357 1.733,0.59 -0.455,-0.215 -0.928,-0.391 -1.403,-0.56 0.557,0.114 1.118,0.229 1.674,0.342 2.629,0.537 5.35,1.093 8.073,1.57 z M -154.783,92.648 c 6.086,-3.627 11.835,-7.056 22.029,-6.486 l 0.89,0.051 c 9.414,4.076 23.723,10.361 28.327,12.883 1.938,1.064 -7.226,-6.426 -14.508,-12.157 8.283,-0.785 16.625,-2.992 25.247,-6.666 26.85,-11.443 54.226,-5.837 72.34,-2.123 0.321,0.067 0.623,0.127 0.939,0.192 1.116,1.935 2.588,3.465 4.061,4.763 2.179,1.85 4.509,3.286 6.887,4.532 2.378,1.242 4.815,2.287 7.278,3.213 2.465,0.916 4.957,1.726 7.478,2.382 -4.654,-2.316 -9.099,-5.048 -13.038,-8.222 -1.957,-1.59 -3.77,-3.322 -5.22,-5.18 -0.015,-0.017 -0.027,-0.039 -0.044,-0.059 3.309,0.571 6.14,0.905 8.44,0.799 10.396,-0.5 20.345,2.655 23.087,4.221 1.506,7.617 4.416,37.51 1.098,41.551 0.002,-0.002 0.051,-0.063 0.16,-0.139 l 0.281,0.401 c -6.355,2.122 -11.941,4.078 -15.832,5.597 L -0.717,116.15 v 16.436 c 0,0.103 -10.416,5.937 -21.477,11.765 -15.732,6.29 -36.084,13.313 -49.905,14.825 v -0.006 c -1.361,0.131 -3.069,0.17 -4.636,0.158 -1.6,-0.017 -3.216,-0.068 -4.829,-0.191 -3.231,-0.225 -6.46,-0.651 -9.665,-1.256 -6.411,-1.197 -12.696,-3.182 -18.697,-5.881 -3.001,-1.348 -5.899,-2.934 -8.725,-4.65 -2.818,-1.735 -5.499,-3.688 -8.104,-5.766 -5.136,-4.229 -9.763,-9.135 -13.777,-14.545 3.49,5.758 7.679,11.143 12.519,15.947 2.455,2.364 5.021,4.633 7.764,6.694 2.748,2.045 5.606,3.972 8.606,5.671 5.646,3.208 11.68,5.793 17.949,7.678 0.018,0.155 0.036,0.319 0.057,0.494 -0.178,0.049 -0.358,0.102 -0.53,0.149 l -1.778,0.455 c -1.202,0.291 -2.429,0.562 -3.66,0.81 -2.46,0.5 -4.951,0.934 -7.453,1.299 -5.002,0.729 -10.059,1.207 -15.124,1.319 -5.066,0.123 -10.146,-0.143 -15.154,-0.991 -4.976,-0.902 -9.939,-2.402 -14.29,-5.209 3.978,3.321 8.859,5.496 13.851,7.043 5.023,1.496 10.223,2.411 15.444,2.92 5.226,0.526 10.484,0.668 15.742,0.551 2.631,-0.062 5.26,-0.193 7.898,-0.402 1.319,-0.104 2.64,-0.229 3.972,-0.383 l 2.016,-0.26 c 0.059,-0.01 0.113,-0.017 0.172,-0.027 0.017,0.105 0.034,0.209 0.052,0.31 -2.108,2.102 -4.267,4.168 -6.454,6.17 -4.728,4.323 -9.676,8.414 -14.877,12.163 -5.209,3.727 -10.672,7.139 -16.506,9.812 -5.816,2.681 -12.073,4.608 -18.587,4.81 6.502,0.433 13.09,-0.897 19.286,-3.06 6.226,-2.153 12.155,-5.101 17.854,-8.399 5.185,-3.024 10.176,-6.372 15.01,-9.933 -0.666,1.536 -1.334,3.072 -1.981,4.612 -3.37,8.024 -6.554,16.084 -9.666,24.166 -6.207,16.167 -12.144,32.408 -17.898,48.708 7.303,-15.663 14.78,-31.247 22.493,-46.68 3.863,-7.711 7.792,-15.386 11.867,-22.939 1.634,-3.025 3.308,-6.012 5.015,-8.959 4,2.528 12.631,5.065 16.745,6.188 0.487,0.707 1.002,1.367 1.565,1.94 l -27.546,52.031 33.938,-48.711 c 0.515,0.08 1.04,0.139 1.581,0.152 7.974,0.19 16.214,-0.905 18.136,-1.182 5.386,0.891 38.171,6.035 47.975,0.91 2.349,-1.229 5.5,-2.26 8.97,-3.144 -3.113,3.521 -6.169,8.509 -7.523,10.826 -0.215,0.22 -0.434,0.429 -0.643,0.657 -0.974,1.087 -1.753,2.409 -2.179,3.819 -0.444,1.406 -0.606,2.861 -0.576,4.261 0.056,2.813 0.701,5.445 1.457,7.969 0.771,2.524 1.687,4.957 2.625,7.352 1.88,4.791 3.841,9.467 5.337,14.209 1.489,4.724 2.551,9.544 2.405,14.199 -0.045,1.815 -0.297,3.585 -0.742,5.288 -0.918,-0.584 -1.854,-1.153 -3.043,-1.655 -0.321,-0.132 -0.664,-0.259 -1.079,-0.366 -0.406,-0.103 -0.873,-0.209 -1.576,-0.177 -0.533,0.019 -1.088,0.199 -1.549,0.43 -0.234,-0.274 -0.451,-0.524 -0.795,-0.775 -0.412,-0.283 -0.831,-0.55 -1.33,-0.672 -0.501,-0.147 -1.005,-0.214 -1.4,-0.175 -0.213,0.008 -0.424,0.029 -0.631,0.058 -0.195,0.029 -0.209,0.052 -0.322,0.078 l -1.068,0.319 c -0.352,0.113 -0.577,0.225 -0.872,0.338 -0.562,0.222 -1.109,0.451 -1.607,0.688 -1.041,0.463 -2.028,0.953 -3.019,1.439 -0.585,0.292 -1.15,0.599 -1.729,0.896 -2.64,-4.286 -5.047,-8.785 -7.059,-13.368 -1.442,-3.312 -2.676,-6.708 -3.503,-10.168 -0.813,-3.447 -1.237,-7.006 -0.664,-10.359 0.274,-1.674 0.852,-3.262 1.721,-4.678 l 0.748,-1.123 c 0.266,-0.417 0.567,-0.805 0.796,-1.251 0.503,-0.853 0.932,-1.756 1.291,-2.691 1.476,-3.736 1.149,-8.2 -0.916,-11.545 -1.971,-3.403 -5.082,-5.876 -8.453,-7.545 -3.378,-1.619 -7.229,-2.556 -10.91,-1.846 3.714,-0.451 7.397,0.743 10.55,2.527 3.141,1.827 5.908,4.411 7.456,7.589 1.626,3.15 1.593,6.848 0.139,9.942 -0.363,0.777 -0.786,1.527 -1.277,2.242 -0.218,0.371 -0.516,0.699 -0.774,1.047 l -0.879,1.137 c -1.202,1.669 -2.047,3.585 -2.516,5.547 -0.963,3.946 -0.735,7.95 -0.127,11.763 0.629,3.827 1.689,7.525 2.956,11.123 1.271,3.601 2.759,7.103 4.389,10.531 0.618,1.287 1.251,2.55 1.901,3.808 -1.565,0.842 -3.121,1.686 -4.676,2.539 -3.796,2.094 -7.556,4.215 -11.316,6.376 l -0.496,0.285 -0.216,0.366 c -2.068,3.477 -5.916,5.843 -10.09,7.304 -4.206,1.475 -8.737,2.263 -13.292,2.811 -4.565,0.55 -9.184,0.842 -13.809,1.262 -2.311,0.218 -4.627,0.462 -6.921,0.887 -1.141,0.236 -2.287,0.474 -3.384,0.882 -0.074,0.027 -0.147,0.06 -0.22,0.088 -3.903,-2.206 -8.847,-3.015 -12.6,-3.625 -0.244,-0.04 -0.508,-0.083 -0.775,-0.128 4.751,-2.27 9.485,-4.569 14.188,-6.937 3.913,-1.981 7.81,-3.998 11.652,-6.12 1.919,-1.065 3.826,-2.152 5.695,-3.309 0.931,-0.583 1.859,-1.17 2.752,-1.816 0.886,-0.642 1.798,-1.293 2.48,-2.159 -0.777,0.774 -1.743,1.3 -2.688,1.827 -0.951,0.527 -1.934,0.996 -2.919,1.457 -1.972,0.917 -3.981,1.762 -5.997,2.585 -4.037,1.636 -8.121,3.163 -12.22,4.653 -8.192,2.961 -16.463,5.773 -24.729,8.46 -0.08,0.005 -0.149,0.008 -0.231,0.012 -12.656,0.628 -38.991,1.943 -57.169,-21.165 -3.852,-4.897 -5.141,-14.888 -6.08,-22.182 -0.363,-2.809 -0.67,-5.08 -1.026,-6.934 0.174,0.039 0.351,0.082 0.529,0.129 1.676,0.416 3.533,1.026 5.445,1.539 3.828,1.068 8.081,1.68 12.153,1.135 4.082,-0.507 7.863,-2.031 11.19,-4.032 3.333,-2.021 6.303,-4.464 9.021,-7.113 -3.117,2.167 -6.416,4.054 -9.856,5.423 -3.436,1.359 -7.044,2.114 -10.539,1.958 -3.51,-0.132 -6.805,-1.177 -10.07,-2.695 -1.654,-0.751 -3.288,-1.615 -5.186,-2.445 -0.943,-0.412 -1.961,-0.817 -3.144,-1.121 -0.99,-0.255 -2.118,-0.435 -3.355,-0.406 -11.736,-13.959 -10.4,-19.598 -7.593,-31.352 l 0.208,-0.87 c 0.638,-2.678 1.002,-5.135 1.148,-7.406 1.127,0.457 2.257,0.894 3.409,1.317 2.677,0.971 5.397,1.827 8.169,2.497 2.768,0.67 5.598,1.156 8.452,1.27 2.833,0.082 5.791,-0.191 8.263,-1.496 -2.693,0.702 -5.423,0.296 -7.991,-0.368 -2.578,-0.707 -5.052,-1.749 -7.442,-2.948 -2.391,-1.199 -4.704,-2.565 -6.948,-4.022 -2.206,-1.439 -4.441,-3.015 -6.395,-4.588 -1.027,-5.404 -3.31,-9.601 -5.437,-13.504 l -0.078,-0.14 c -2.633,-4.826 -2.687,-12.834 -1.429,-17.584 0.476,1.068 0.947,2.139 1.464,3.189 1.46,2.934 3.077,5.825 5.179,8.414 1.059,1.274 2.263,2.502 3.764,3.321 1.488,0.841 3.38,0.976 4.801,0.207 -1.57,0.463 -3.15,-0.032 -4.278,-0.992 -1.151,-0.96 -2.004,-2.252 -2.728,-3.596 -1.433,-2.713 -2.401,-5.686 -3.215,-8.688 -0.805,-3.013 -1.43,-6.082 -1.953,-9.166 -0.07,-0.435 -0.128,-0.877 -0.197,-1.316 0.157,-1.395 0.286,-3.037 0.429,-5.049 0.759,-10.498 1.905,-26.365 12.965,-30.178 4.267,-1.47 7.739,-3.543 11.098,-5.545 m 79.374,217.681 c 1.485,-2.047 2.719,-3.983 3.712,-5.82 7.459,-7.396 16.646,-18.012 16.646,-18.012 l -13.681,9.276 c 0.191,-2.049 -0.056,-3.932 -0.766,-5.651 -1.056,-2.563 -2.947,-4.383 -5.211,-5.717 0.012,-0.004 0.022,-0.007 0.036,-0.011 1.101,-0.323 2.246,-0.479 3.383,-0.631 2.286,-0.261 4.594,-0.342 6.902,-0.396 4.617,-0.096 9.255,-0.062 13.917,-0.292 4.658,-0.236 9.36,-0.697 14.01,-1.967 2.318,-0.641 4.622,-1.524 6.787,-2.804 1.981,-1.167 3.821,-2.729 5.281,-4.644 3.762,-1.823 7.549,-3.624 11.342,-5.38 1.658,-0.764 3.319,-1.52 4.981,-2.269 0.331,0.58 0.663,1.159 1.011,1.742 0.177,0.294 0.402,0.536 0.647,0.75 l 0.003,0.002 c -0.982,0.323 -1.954,0.686 -2.905,1.085 -3.994,1.666 -7.751,3.89 -11.177,6.538 -3.453,2.324 -6.879,4.692 -10.245,7.143 -3.372,2.444 -6.664,4.994 -9.994,7.487 -3.329,2.495 -6.719,4.906 -10.18,7.213 -3.499,2.379 -6.164,5.721 -8.513,9.161 -4.627,6.985 -8.009,14.695 -10.827,22.549 -2.776,7.876 -4.952,15.979 -6.263,24.257 -1.252,8.262 -1.738,16.789 -0.024,25.141 0.871,4.152 2.384,8.258 4.856,11.833 2.54,3.462 5.326,6.549 8.274,9.569 5.892,6.011 12.503,11.204 18.946,16.43 6.433,5.22 12.649,10.707 17.326,17.402 l 0.054,0.076 0.069,0.071 3.961,4.1 c -0.02,0.066 -0.035,0.132 -0.051,0.198 -1.186,4.321 -2.542,8.596 -4.006,12.832 -0.732,2.116 -1.494,4.223 -2.281,6.318 l -0.559,1.454 c -18.55,-10.608 -49.622,-40.772 -55.811,-54.622 -3.282,-7.346 -4.739,-16.928 -6.025,-25.383 -1.3,-8.541 -2.327,-15.287 -4.926,-19.068 -3.022,-4.396 1.589,-22.801 21.301,-49.96 m 90.71,-40.115 c 0.205,-0.131 0.394,-0.291 0.566,-0.473 0.067,0.213 0.112,0.437 0.112,0.672 0,0.079 -0.016,0.155 -0.024,0.234 -0.215,-0.149 -0.433,-0.293 -0.654,-0.433 m -0.071,0.051 c 0.243,0.155 0.481,0.314 0.715,0.478 -0.162,1.113 -1.111,1.971 -2.267,1.971 -1.272,0 -2.305,-1.031 -2.305,-2.301 0,-0.2 0.033,-0.388 0.082,-0.573 0.09,0.086 0.174,0.177 0.277,0.254 1.053,0.787 2.44,0.81 3.498,0.171 m -6.335,-1.017 c 0.023,-0.563 0.052,-1.126 0.087,-1.686 0.512,0.132 1.018,0.279 1.52,0.446 0.027,0.196 0.074,0.391 0.137,0.579 -0.323,0.535 -0.522,1.155 -0.522,1.826 0,1.962 1.598,3.557 3.561,3.557 1.551,0 2.861,-1.005 3.345,-2.394 1.526,1.262 2.866,2.74 4.094,4.29 1.43,1.812 2.729,3.722 3.949,5.681 4.836,7.874 8.655,16.325 12.176,24.855 3.502,8.546 6.506,17.298 9.076,26.158 1.258,4.436 2.393,8.913 3.161,13.442 0.373,2.262 0.673,4.542 0.71,6.812 0.043,1.14 -0.039,2.249 -0.177,3.372 l -0.457,3.436 c -1.201,9.14 -2.856,18.238 -5.903,26.886 -3.035,8.607 -7.51,16.82 -14.031,23.121 -3.221,3.148 -6.949,5.86 -10.76,8.36 -3.844,2.475 -7.845,4.719 -11.949,6.769 -8.203,4.084 -16.777,7.562 -25.479,10.347 l -0.232,0.075 -0.134,0.106 c 0.216,-2.129 0.383,-4.265 0.472,-6.405 6.45,-2.175 28.381,-10.113 41.918,-21.793 16.012,-13.814 18.42,-38.794 20.094,-51.98 1.674,-13.186 -19.912,-70.673 -31.709,-78.626 -0.971,-0.654 -1.973,-1.151 -2.992,-1.535 -0.03,-1.913 -0.022,-3.823 0.045,-5.699 m -11.238,-5.731 c 0.34,-0.142 0.679,-0.298 1.021,-0.439 0.974,-0.397 1.951,-0.798 2.91,-1.146 0.283,-0.112 0.543,-0.192 0.812,-0.281 0.002,0.474 -0.017,0.995 -0.058,1.521 -0.108,1.205 -0.289,2.456 -0.5,3.718 -0.451,0.027 -0.903,0.066 -1.352,0.113 -0.187,-1.368 -1.148,-2.482 -2.434,-2.894 -0.135,-0.195 -0.264,-0.395 -0.399,-0.592 m 1.107,2.527 c 0.256,0.315 0.427,0.696 0.486,1.118 -0.233,0.034 -0.463,0.063 -0.695,0.1 0.15,-0.388 0.22,-0.8 0.209,-1.218 m -3.215,3.227 c 0.579,0.018 1.169,-0.119 1.702,-0.44 0.616,-0.367 1.048,-0.917 1.294,-1.537 0.234,-0.041 0.472,-0.071 0.709,-0.107 0.012,0.098 0.029,0.194 0.029,0.296 0,1.268 -1.033,2.302 -2.303,2.302 -0.542,0 -1.035,-0.197 -1.431,-0.514 m -16.341,159.568 c -0.427,2.313 -0.947,4.61 -1.521,6.893 l -2.862,-2.949 c -4.93,-6.925 -11.355,-12.501 -17.82,-17.68 -6.512,-5.214 -13.059,-10.293 -18.874,-16.149 -2.884,-2.912 -5.692,-6.021 -8.143,-9.222 -2.328,-3.248 -3.829,-7.083 -4.729,-11.047 -1.776,-7.978 -1.461,-16.372 -0.352,-24.538 1.159,-8.189 3.186,-16.269 5.816,-24.131 2.668,-7.842 5.906,-15.555 10.371,-22.54 2.269,-3.441 4.852,-6.78 8.232,-9.159 3.431,-2.359 6.826,-4.775 10.139,-7.3 3.317,-2.517 6.591,-5.086 9.944,-7.548 3.348,-2.472 6.755,-4.861 10.193,-7.205 l 0.003,-0.001 0.003,-0.003 c 3.394,-2.661 7.133,-4.907 11.111,-6.593 0.946,-0.406 1.911,-0.773 2.891,-1.103 0.46,1.432 1.788,2.477 3.37,2.477 1.963,0 3.559,-1.596 3.559,-3.558 0,-0.158 -0.025,-0.309 -0.047,-0.462 0.449,-0.049 0.899,-0.093 1.348,-0.122 -0.406,2.426 -0.967,4.902 -1.584,7.301 -8.693,1.324 -16.462,7.723 -16.462,7.723 -15.489,10.467 -17.686,13.373 -30.662,22.164 -12.977,8.79 -32.234,64.489 -17.581,82.908 14.459,18.179 31.543,25.163 43.657,41.844 M 14.887,319.437 c 1.271,0.88 2.625,10.403 3.291,15.735 -0.168,0.092 -0.354,0.239 -0.567,0.469 l -2.724,-8.548 c 0,0 -1.776,-8.886 0,-7.656 m -6.192,57.182 c 0,0 4.584,-1.945 6.485,-2.127 1.902,-0.183 6.541,3.235 6.541,3.235 l 0.56,1.454 c 0,0 -0.504,0.511 -3.969,0.614 0.055,-0.307 0.2,-2.259 -1.863,-3.416 -1.261,-0.709 -4.156,0.037 -4.156,0.037 -1.52,0.795 -2.061,1.767 -2.061,1.767 l -1.537,-0.078 z m -23.449,-25.925 c 0.04,0.614 -4.097,6.924 -4.097,6.924 0,0 -3.607,-2.664 -2.49,-3.586 1.118,-0.922 6.546,-3.952 6.587,-3.338 m -8.533,-17.365 1.571,-3.519 c 0,0 1.151,-0.524 1.569,-0.471 0.418,0.053 0.893,3.99 0.893,3.99 -0.032,0.854 -4.033,0 -4.033,0 m -4.321,41.933 c 0,0 -2.739,1.34 -3.829,1.033 -0.579,-1.611 -1.959,-2.877 -4.643,-2.263 -2.684,0.616 -2.767,3.381 -2.767,3.381 l -2.197,-0.709 c 0,0 0.855,-1.366 2.197,-3.002 1.342,-1.636 5.779,-2.258 7.783,-1.011 1.356,0.843 3.456,2.571 3.456,2.571 m -7.397,-39.033 c 0,0 1.505,-13.233 3.28,-14.463 1.774,-1.229 0.432,5.327 0.432,5.327 z m 4.037,23.253 -9.047,-1.818 -0.111,0.004 c -7.637,0.208 -7.941,0.952 -8.166,1.496 -0.063,0.158 -0.154,0.505 -0.257,0.97 -0.342,-2.832 -0.134,-6.009 0.749,-6.492 1.214,-0.665 3.571,-2.858 6.768,-5.883 1.022,-0.967 2.224,-2.106 2.953,-2.742 0.211,0.375 0.473,0.862 0.715,1.316 1.595,2.986 4.006,7.5 6.688,8.96 0.193,0.199 0.575,1.337 0.806,2.48 z m 32.599,-3.985 c 0,0 -0.885,-1.353 -1.832,-2.865 l 0.039,-0.117 0.199,-3.051 c 1.598,0.824 3.477,1.946 4.086,2.447 1.117,0.922 -2.492,3.586 -2.492,3.586 M 5.56,333.828 c -0.212,0.279 -0.415,0.491 -0.529,0.535 -0.533,0.167 -3.14,0.638 -4.32,0.707 0.191,-0.403 0.336,-1.138 0.586,-2.586 0.086,-0.507 0.207,-1.209 0.305,-1.614 0.314,0.02 0.734,0.081 1.363,0.348 0.849,0.357 0.982,0.84 1.041,1.261 0.086,0.642 0.828,1.074 1.554,1.349 m -22.922,0.631 c 0.019,-1.757 0.322,-3.48 0.671,-3.686 1.19,-0.631 1.955,-0.785 2.114,-0.768 0.028,0.014 0.114,0.078 0.196,0.141 0.226,0.172 0.758,0.574 1.354,0.164 0.252,-0.165 2.009,-0.868 3.667,-0.66 0.378,0.046 0.683,0.091 0.935,0.126 0.968,0.138 1.442,0.204 1.908,-0.305 0.43,-0.101 1.902,-0.027 3.171,0.114 l 0.354,0.308 c -0.314,3.171 -0.193,4.262 -0.037,4.691 -1.638,-0.219 -3.401,-0.418 -4.032,-0.374 -0.552,0.053 -0.741,-0.611 -0.763,-0.686 l -0.299,-1.024 -1.97,1.91 c -0.812,0.15 -1.743,0.276 -2.071,0.246 -0.217,-0.197 -0.74,-0.789 -1.147,-1.287 l -0.474,-0.577 -1.981,2.187 z m 16.202,15.602 -0.151,2.302 -2.901,8.609 c -0.551,1.033 -1.189,2.213 -1.542,2.825 -0.784,-0.515 -2.461,-1.66 -3.68,-2.5 -0.039,-0.822 -0.484,-2.583 -1.672,-6.786 -0.455,-1.612 -1.011,-3.586 -1.111,-4.191 0.736,-0.66 4.82,-3.175 6.431,-2.558 1.66,0.64 3.831,1.847 4.626,2.299 m 0.441,25.308 H -13.47 l -0.206,-0.817 c 3.048,-1.62 6.656,-3.096 7.473,-2.793 1.121,0.434 4.547,2.242 5.877,2.95 z M 24.875,389.2 c -10.233,7.051 -26.191,17.715 -28.293,18.224 -2.455,0.597 -12.064,-0.197 -15.559,-0.556 -2.765,0 -14.371,-10.414 -22.664,-18.635 2.859,-0.478 5.933,-0.968 6.39,-0.984 0.059,0.029 0.597,0.278 0.988,0.462 1.671,0.775 3.752,1.738 5.056,0.662 1.015,-0.836 7.824,-5.94 8.768,-6.649 l 1.495,-0.648 c 0.426,0.186 1.108,0.442 2.229,0.799 1.634,7.843 2.038,8.212 2.336,8.484 l 0.533,0.489 0.713,-0.258 c 0.747,-0.293 1.1,-0.434 1.839,-9.873 l 9.561,-0.345 0.805,0.731 -0.582,13.626 5.662,-12.557 9.618,7.066 0.443,-0.044 c 4.01,-0.402 8.441,-0.776 10.213,-0.833 0.105,0.247 0.252,0.525 0.449,0.839 m -12.16,-32.177 c 1.639,-6.335 4.068,-15.366 4.631,-16.501 0.16,-0.324 0.326,-0.647 0.494,-0.957 0.59,3.626 2.244,8.99 3.652,10.668 0.803,0.957 1.615,2.307 2.268,3.392 0.953,1.584 1.363,2.238 1.937,2.525 0.973,0.483 1.57,1.175 1.825,2.113 0.439,1.615 -0.19,3.734 -0.915,5.383 l -0.498,-1.343 -0.214,-0.193 c -5.01,-4.459 -8.764,-5.131 -13.18,-5.087 M 4.301,304.2 c -0.588,-0.091 -5.418,-0.81 -6.787,-0.899 -1.368,-0.091 -9.702,0.988 -10.095,1.525 -0.39,0.54 -2.351,0.899 -2.351,0.899 0.49,-0.538 2.33,-4.67 3.763,-5.298 0.581,-0.255 2.619,-0.451 4.91,-0.594 0.667,-0.04 1.588,1.426 2.268,1.393 2.753,-0.133 0.499,-1.458 5.647,-1.697 1.063,-0.05 0.959,1.346 2.529,2.335 1.569,0.987 0.704,2.425 0.116,2.336 m 0.174,22.661 c -0.924,0.998 -1.008,0 -1.008,0 l -1.846,-0.922 v -3.11 c 0,-0.808 -1.006,1.804 -1.006,1.804 0,0 -1.51,-0.461 -2.013,-0.922 -0.503,-0.461 -3.355,-0.69 -3.443,-0.69 -0.092,0 -0.875,-1.402 -0.875,-1.402 0,0 -0.796,1.325 -2.103,1.325 -1.307,0 -4.06,-0.537 -4.187,-0.307 -0.126,0.229 -0.964,-1.614 -0.964,-1.614 0,0 -0.419,1.306 -1.006,1.614 -0.588,0.307 -2.097,0.46 -3.017,1.074 l -0.422,0.155 -1.005,-0.893 c 0,0 2.766,-2.103 4.04,-3.256 1.272,-1.152 8.285,-1.075 10.466,-1.075 2.181,0 7.717,4.302 8.389,5.224 0.67,0.922 0.92,1.997 0,2.995 m 4.812,-65.459 c -0.168,-0.005 -0.102,-0.031 0.01,-0.007 0.006,0 0.017,0.002 0.023,0.003 -0.01,0 -0.023,0.004 -0.033,0.004 m 0.176,1.915 c 0.111,-0.644 0.293,-1.304 0.451,-1.746 0.893,0.316 1.889,0.819 2.9,1.394 -0.501,0.949 -1.072,1.863 -1.72,2.732 -0.504,0.675 -0.69,1.486 -0.594,2.261 -0.5,-0.164 -1.006,-0.307 -1.516,-0.434 0.094,-1.458 0.235,-2.889 0.479,-4.207 m -32.195,194.869 c 0.373,-1.708 0.743,-3.414 1.081,-5.127 0.884,-4.497 1.653,-9.017 2.241,-13.564 0.029,-0.229 0.053,-0.457 0.082,-0.686 l 1.741,-1.431 c 8.792,-2.889 17.294,-6.409 25.532,-10.573 4.151,-2.107 8.211,-4.415 12.121,-6.969 3.889,-2.594 7.67,-5.361 11.038,-8.705 6.716,-6.712 11.166,-15.266 14.117,-24.085 2.957,-8.861 4.472,-18.088 5.527,-27.274 l 0.402,-3.443 c 0.125,-1.17 0.194,-2.375 0.129,-3.545 -0.078,-2.354 -0.424,-4.663 -0.84,-6.951 -0.851,-4.574 -2.064,-9.052 -3.402,-13.484 -2.701,-8.86 -5.928,-17.537 -9.467,-26.082 -3.58,-8.519 -7.457,-16.955 -12.353,-24.814 -1.237,-1.954 -2.551,-3.862 -3.994,-5.67 -1.252,-1.557 -2.618,-3.04 -4.17,-4.304 0.109,-0.339 0.181,-0.693 0.181,-1.066 0,-0.686 -0.203,-1.321 -0.541,-1.865 0.461,-0.747 0.887,-1.516 1.28,-2.306 0.707,0.489 1.414,0.978 2.117,1.481 3.43,2.459 6.814,5.058 10.107,7.714 l 0.225,0.182 0.142,0.061 c 2.754,1.178 5.303,3.282 7.655,5.494 2.349,2.251 4.533,4.724 6.609,7.29 2.852,3.554 5.518,7.279 8.031,11.11 -5.808,8.663 -2.549,30.021 10.268,68.106 0.334,0.993 0.656,1.952 0.869,2.604 -3.207,7.017 -25.846,48.409 -30.549,52.105 -5.83,4.582 -41.558,28.221 -56.179,35.797 m 191.63,-242.647 c -0.814,-10.314 0.03,-18.693 2.403,-22.649 2.857,-4.764 1.424,-22.63 -1.819,-40.193 0.168,-0.437 0.332,-0.885 0.495,-1.359 l -0.786,-0.184 c -2.257,-11.814 -5.299,-23.312 -8.377,-30.39 -2.634,-6.057 -9.207,-9.719 -14.007,-12.395 -0.928,-0.515 -1.803,-1.006 -2.516,-1.441 l 0.264,-0.412 c -0.239,-0.153 -0.473,-0.286 -0.709,-0.428 0.468,-8.1 1.744,-33.705 -0.192,-44.641 l -0.117,-0.666 -0.381,-0.558 c -0.123,-0.18 -11.66,-17 -29.297,-36.403 l -4.42,-4.783 C 90.346,-1.213 70.754,-14.729 68.156,-16.488 58.695,-25.82 40.121,-28.912 21.689,-28.912 c -21.697,0 -43.201,4.281 -49.452,7.711 -6.9,3.787 -24.957,14.447 -42.42,24.758 -14.443,8.525 -28.085,16.578 -35.904,21.048 -13.27,7.583 -22.444,32.836 -26.755,47.327 -1.288,0.048 -2.039,0.06 -2.039,0.06 l 1.376,2.205 c -0.654,2.287 -1.165,4.221 -1.523,5.623 -10.51,0.004 -16.836,3.776 -22.97,7.434 -3.227,1.926 -6.277,3.742 -9.93,5.004 -14.326,4.939 -16.21,22.615 -17.068,34.127 0,0 -1.341,4.849 -0.589,6.955 -0.131,1.027 -0.281,1.838 -0.461,2.191 -3.706,5.178 -4.552,19.033 -0.149,27.108 l 0.075,0.14 c 3.609,6.615 7.017,12.862 4.179,24.786 l -0.207,0.866 c -3.131,13.109 -5.021,21.021 10.58,38.82 0.649,0.973 1.272,5.816 1.73,9.354 1.09,8.467 2.449,19.004 7.372,25.262 20.185,25.659 48.705,24.235 62.417,23.554 2.225,-0.11 4.732,-0.234 5.585,-0.094 1.319,0.751 3.174,1.054 5.884,1.496 4.668,0.76 11.717,1.909 13.276,5.69 1.201,2.914 -0.595,7.799 -5.188,14.128 -18.943,26.1 -27.34,48.554 -21.391,57.206 1.783,2.593 2.805,9.325 3.892,16.455 1.344,8.848 2.871,18.878 6.5,27 7.027,15.726 42.001,49.411 61.349,59.085 0.825,0.414 1.697,0.846 4.503,-0.094 0.367,-0.17 1.109,-0.407 1.109,-0.407 4.374,-1.712 12.538,-6.127 28.909,-16.504 14.648,-9.287 29.85,-19.62 32.947,-22.055 5.608,-4.404 33.121,-53.561 33.121,-56.888 0,-0.693 -0.078,-0.923 -1.369,-4.76 -17.062,-50.7 -12.893,-61.236 -10.308,-63.412 5.185,-4.367 23.978,-7.097 40.556,-9.506 23.723,-3.448 38.457,-5.95 43.047,-11.597 7.514,-9.251 29.104,-44.794 27.26,-58.843 z m -193.517,250.707 0.012,-0.026 c -0.002,-0.001 -0.004,0 -0.007,0 -0.014,0.051 -0.005,0.026 -0.005,0.026"
             style="fill:#000000;fill-opacity:1;fill-rule:nonzero;stroke:none"
             id="path1329" />
        </g>
      </g>
    </g>
  </g>
</svg>
